<svg width="543" height="146" viewBox="0 0 543 146" fill="none" xmlns="http://www.w3.org/2000/svg">
    <path
        d="M166.507 43.3574H179.154V31.6035H166.507V43.3574ZM155.528 113.697H161.577C171.878 113.697 179.154 106.388 179.154 96.1031V49.6384H166.507V95.1481C166.507 99.666 164.088 102.017 159.597 102.017H155.51V113.697H155.528ZM229.321 49.6384L228.02 54.0829C223.767 50.3359 218.286 48.2896 212.623 48.3345C198.601 48.3345 188.135 58.9681 188.135 73.183C188.135 87.3795 198.583 98.1049 212.623 98.1049C218.58 98.1049 223.767 96.0113 227.763 92.43L228.881 96.7091H238.742V49.6384H229.321ZM213.65 86.0755C211.957 86.1114 210.275 85.8013 208.705 85.1641C207.136 84.527 205.713 83.5762 204.523 82.3698C203.332 81.1633 202.4 79.7265 201.782 78.1471C201.164 76.5676 200.874 74.8785 200.929 73.183C200.866 71.4845 201.151 69.7911 201.766 68.2071C202.38 66.623 203.312 65.1818 204.504 63.9723C205.696 62.7628 207.122 61.8105 208.695 61.1741C210.268 60.5377 211.954 60.2307 213.65 60.272C215.345 60.2307 217.032 60.5377 218.604 61.1741C220.177 61.8105 221.604 62.7628 222.795 63.9723C223.987 65.1818 224.919 66.623 225.534 68.2071C226.148 69.7911 226.433 71.4845 226.37 73.183C226.431 74.8799 226.144 76.5713 225.528 78.1532C224.912 79.7351 223.98 81.174 222.788 82.3815C221.597 83.5891 220.172 84.5397 218.6 85.175C217.028 85.8102 215.344 86.1167 213.65 86.0755ZM281.614 49.6384L270.36 81.1903L258.941 49.6384H245.432L264.476 96.7091H276.152L294.664 49.6384H281.596H281.614ZM337.884 49.6384L336.583 54.0829C332.33 50.3359 326.849 48.2896 321.187 48.3345C307.165 48.3345 296.699 58.9681 296.699 73.183C296.699 87.3795 307.165 98.1049 321.187 98.1049C327.144 98.1049 332.349 96.0113 336.326 92.43L337.445 96.7091H347.306V49.6384H337.884ZM322.213 86.0755C320.52 86.1114 318.838 85.8013 317.269 85.1641C315.7 84.527 314.277 83.5762 313.086 82.3698C311.896 81.1633 310.963 79.7265 310.345 78.1471C309.728 76.5676 309.437 74.8785 309.493 73.183C309.43 71.4845 309.714 69.7911 310.329 68.2071C310.944 66.623 311.876 65.1818 313.067 63.9723C314.259 62.7628 315.685 61.8105 317.258 61.1741C318.831 60.5377 320.517 60.2307 322.213 60.272C323.909 60.2307 325.595 60.5377 327.168 61.1741C328.741 61.8105 330.167 62.7628 331.359 63.9723C332.55 65.1818 333.482 66.623 334.097 68.2071C334.712 69.7911 334.996 71.4845 334.933 73.183C334.994 74.8799 334.707 76.5713 334.091 78.1532C333.475 79.7351 332.543 81.174 331.352 82.3815C330.16 83.5891 328.735 84.5397 327.163 85.175C325.592 85.8102 323.907 86.1167 322.213 86.0755ZM359.549 43.3574H372.087V31.6035H359.549V43.3574ZM359.549 96.7091H372.178V49.6384H359.531V96.7275L359.549 96.7091ZM400.827 98.1049C412.686 98.1049 420.457 91.8239 420.457 82.2371C420.457 70.7404 410.688 69.1609 403.081 67.7652C398.224 66.902 394.246 66.1123 394.246 62.9901C394.246 60.272 396.593 58.5273 400.478 58.5273C404.877 58.5273 407.48 60.3639 407.572 64.1104H419.596C419.504 54.6889 412.081 48.3345 400.827 48.3345C389.573 48.3345 382.058 54.5236 382.058 63.4125C382.058 74.4869 391.57 76.4888 399.012 77.7927C403.943 78.5824 407.993 79.5374 407.993 82.7514C407.993 85.9102 404.804 87.5631 401.34 87.5631C396.849 87.5631 393.642 85.4695 393.55 81.2821H381.269C381.269 91.3097 389.151 98.1049 400.827 98.1049ZM452.166 85.3776C447.493 85.3776 444.908 82.7697 444.908 78.2151V59.9231H457.629V49.6384H444.725V37.4437H442.305L423.885 57.1315V59.9231H432.279V79.9782C432.279 90.3547 438.585 96.7091 448.886 96.7091H457.867V85.3776H452.185H452.166ZM466.5 43.3574H479.055V31.6035H466.5V43.3574ZM466.5 96.7091H479.147V49.6384H466.5V96.7275V96.7091ZM512.982 98.1049C525.171 98.1049 534.776 90.0792 536.939 78.2335H524.218C522.055 83.284 518.078 86.0755 512.982 86.0755C506.219 86.0755 500.959 80.419 500.959 73.183C500.959 65.8368 506.146 60.272 512.982 60.272C515.381 60.2403 517.734 60.9304 519.737 62.2531C521.741 63.5759 523.301 65.4704 524.218 67.6917H536.774C534.519 56.0847 525.171 48.3345 513.056 48.3345C498.869 48.3345 488.128 58.9681 488.128 73.0911C488.128 87.2142 498.869 98.1049 512.982 98.1049Z"
        fill="black" />
    <path
        d="M78.1717 2.00627L127.934 30.7959C130.202 32.1097 132.085 33.9975 133.395 36.2701C134.704 38.5428 135.395 41.1204 135.398 43.7448V101.324C135.398 106.666 132.567 111.621 127.934 114.291L78.1717 143.081C75.8997 144.395 73.3224 145.087 70.699 145.087C68.0755 145.087 65.4983 144.395 63.2263 143.081L13.4635 114.291C11.1934 112.976 9.30869 111.085 7.99868 108.809C6.68862 106.533 5.99932 103.952 6 101.324V43.7448C6 38.4032 8.84939 33.4667 13.4635 30.7959L63.2263 2.00627C65.4983 0.69194 68.0755 0 70.699 0C73.3224 0 75.8997 0.69194 78.1717 2.00627ZM101.426 45.421L77.0871 31.3669C74.8194 30.0594 72.249 29.3713 69.6328 29.3713C67.0165 29.3713 64.4461 30.0594 62.1784 31.3669L37.8394 45.421C35.5659 46.734 33.6775 48.6237 32.3641 50.9C31.0507 53.1763 30.3587 55.759 30.3575 58.3883V86.4412C30.3575 91.7828 33.2068 96.7561 37.8394 99.4085L62.1784 113.463C64.4461 114.77 67.0165 115.458 69.6328 115.458C72.249 115.458 74.8194 114.77 77.0871 113.463L101.426 99.4085C103.7 98.0954 105.588 96.2057 106.901 93.9294C108.215 91.6531 108.907 89.0705 108.908 86.4412V58.3883C108.908 53.0466 106.04 48.0734 101.426 45.421Z"
        fill="#3884FF" />
    <path
        d="M71.1932 91.486C81.7362 91.486 90.2829 82.9393 90.2829 72.3963C90.2829 61.8534 81.7362 53.3066 71.1932 53.3066C60.6503 53.3066 52.1035 61.8534 52.1035 72.3963C52.1035 82.9393 60.6503 91.486 71.1932 91.486Z"
        fill="black" />
</svg>