<svg width="796" height="114" viewBox="0 0 796 114" fill="none" xmlns="http://www.w3.org/2000/svg">
<path d="M126.432 34.0437H136.395V24.814H126.432V34.0437ZM117.784 89.2774H122.549C130.663 89.2774 136.395 83.5381 136.395 75.4619V38.9758H126.432V74.712C126.432 78.2597 124.527 80.1058 120.989 80.1058H117.77V89.2774H117.784ZM175.911 38.9758L174.887 42.4658C171.536 39.5235 167.219 37.9167 162.758 37.9519C151.713 37.9519 143.469 46.3019 143.469 57.4641C143.469 68.6118 151.699 77.0338 162.758 77.0338C167.451 77.0338 171.536 75.3898 174.684 72.5776L175.565 75.9378H183.332V38.9758H175.911ZM163.567 67.5878C162.234 67.616 160.909 67.3725 159.672 66.8721C158.436 66.3719 157.315 65.6252 156.378 64.6779C155.44 63.7305 154.706 62.6023 154.219 61.3621C153.732 60.1218 153.504 58.7954 153.547 57.4641C153.497 56.1303 153.722 54.8006 154.206 53.5568C154.69 52.3129 155.424 51.1812 156.363 50.2314C157.302 49.2817 158.425 48.5339 159.664 48.0341C160.903 47.5344 162.231 47.2933 163.567 47.3258C164.902 47.2933 166.231 47.5344 167.47 48.0341C168.709 48.5339 169.833 49.2817 170.771 50.2314C171.71 51.1812 172.444 52.3129 172.928 53.5568C173.412 54.8006 173.636 56.1303 173.587 57.4641C173.635 58.7965 173.409 60.1247 172.924 61.3669C172.438 62.609 171.704 63.7389 170.765 64.6871C169.827 65.6354 168.705 66.3818 167.466 66.8807C166.228 67.3795 164.902 67.6202 163.567 67.5878ZM217.103 38.9758L208.238 63.7517L199.243 38.9758H188.602L203.603 75.9378H212.8L227.382 38.9758H217.089H217.103ZM261.427 38.9758L260.402 42.4658C257.052 39.5235 252.735 37.9167 248.275 37.9519C237.23 37.9519 228.985 46.3019 228.985 57.4641C228.985 68.6118 237.23 77.0338 248.275 77.0338C252.967 77.0338 257.067 75.3898 260.2 72.5776L261.081 75.9378H268.849V38.9758H261.427ZM249.083 67.5878C247.749 67.616 246.424 67.3725 245.189 66.8721C243.953 66.3719 242.832 65.6252 241.894 64.6779C240.956 63.7305 240.221 62.6023 239.735 61.3621C239.248 60.1218 239.019 58.7954 239.063 57.4641C239.014 56.1303 239.237 54.8006 239.722 53.5568C240.206 52.3129 240.94 51.1812 241.879 50.2314C242.818 49.2817 243.941 48.5339 245.18 48.0341C246.419 47.5344 247.747 47.2933 249.083 47.3258C250.419 47.2933 251.747 47.5344 252.986 48.0341C254.225 48.5339 255.348 49.2817 256.287 50.2314C257.226 51.1812 257.96 52.3129 258.444 53.5568C258.929 54.8006 259.152 56.1303 259.103 57.4641C259.151 58.7965 258.925 60.1247 258.439 61.3669C257.954 62.609 257.22 63.7389 256.282 64.6871C255.343 65.6354 254.22 66.3818 252.982 66.8807C251.745 67.3795 250.417 67.6202 249.083 67.5878ZM278.493 34.0437H288.369V24.814H278.493V34.0437ZM278.493 75.9378H288.441V38.9758H278.479V75.9522L278.493 75.9378ZM311.008 77.0338C320.349 77.0338 326.47 72.1017 326.47 64.5737C326.47 55.546 318.775 54.3057 312.783 53.2098C308.957 52.5319 305.824 51.9118 305.824 49.4601C305.824 47.3258 307.673 45.9558 310.733 45.9558C314.198 45.9558 316.248 47.3979 316.321 50.3399H325.792C325.72 42.9417 319.873 37.9519 311.008 37.9519C302.143 37.9519 296.223 42.8119 296.223 49.7918C296.223 58.4879 303.716 60.0599 309.578 61.0838C313.462 61.7039 316.652 62.4538 316.652 64.9776C316.652 67.458 314.14 68.7559 311.412 68.7559C307.874 68.7559 305.348 67.1119 305.276 63.8238H295.602C295.602 71.6979 301.81 77.0338 311.008 77.0338ZM351.448 67.0398C347.767 67.0398 345.731 64.9919 345.731 61.4155V47.0518H355.751V38.9758H345.586V29.4H343.68L329.171 44.8597V47.0518H335.783V62.7999C335.783 70.948 340.75 75.9378 348.864 75.9378H355.938V67.0398H351.463H351.448ZM362.739 34.0437H372.628V24.814H362.739V34.0437ZM362.739 75.9378H372.701V38.9758H362.739V75.9522V75.9378ZM399.353 77.0338C408.954 77.0338 416.52 70.7317 418.224 61.4299H408.204C406.5 65.3958 403.367 67.5878 399.353 67.5878C394.026 67.5878 389.882 63.1461 389.882 57.4641C389.882 51.6955 393.968 47.3258 399.353 47.3258C401.243 47.3009 403.096 47.8428 404.674 48.8814C406.252 49.9201 407.481 51.4078 408.204 53.1521H418.094C416.318 44.0377 408.954 37.9519 399.411 37.9519C388.236 37.9519 379.775 46.3019 379.775 57.3919C379.775 68.482 388.236 77.0338 399.353 77.0338Z" fill="black"/>
<path d="M56.8501 1.57541L96.0482 24.1823C97.8347 25.2139 99.318 26.6963 100.35 28.4809C101.381 30.2655 101.925 32.2895 101.928 34.3503V79.564C101.928 83.7588 99.6977 87.6497 96.0482 89.7463L56.8501 112.353C55.0604 113.385 53.0303 113.929 50.9638 113.929C48.8972 113.929 46.8672 113.385 45.0775 112.353L5.87904 89.7463C4.09086 88.7137 2.60628 87.2288 1.57437 85.4415C0.542431 83.6543 -0.000535244 81.6276 3.95926e-07 79.564V34.3503C3.95926e-07 30.1559 2.24448 26.2795 5.87904 24.1823L45.0775 1.57541C46.8672 0.543341 48.8972 0 50.9638 0C53.0303 0 55.0604 0.543341 56.8501 1.57541ZM75.1677 35.6665L55.9957 24.6307C54.2095 23.6039 52.1847 23.0636 50.1239 23.0636C48.0631 23.0636 46.0383 23.6039 44.2521 24.6307L25.0801 35.6665C23.2892 36.6976 21.8017 38.1814 20.7672 39.9689C19.7326 41.7563 19.1875 43.7844 19.1865 45.849V67.8774C19.1865 72.0718 21.431 75.9771 25.0801 78.0599L44.2521 89.0961C46.0383 90.1224 48.0631 90.6626 50.1239 90.6626C52.1847 90.6626 54.2095 90.1224 55.9957 89.0961L75.1677 78.0599C76.959 77.0288 78.4461 75.5449 79.4804 73.7574C80.5154 71.97 81.0605 69.942 81.0613 67.8774V45.849C81.0613 41.6545 78.8022 37.7493 75.1677 35.6665Z" fill="url(#paint0_linear_1078_2295)"/>
<path d="M52.3204 50.5468C52.3204 49.6136 51.4799 48.8571 50.4429 48.8571C49.406 48.8571 48.5654 49.6136 48.5654 50.5468V58.2714C48.5654 58.7647 48.8049 59.2334 49.2211 59.5544L56.7311 65.3478C57.5184 65.9552 58.7037 65.8731 59.3785 65.1646C60.0533 64.456 59.9621 63.3893 59.1748 62.7819L52.3204 57.4942V50.5468Z" fill="black"/>
<path fill-rule="evenodd" clip-rule="evenodd" d="M51.3057 39C46.4508 39 41.7946 40.9286 38.3616 44.3616C34.9286 47.7946 33 52.4508 33 57.3057C33 59.7097 33.4735 62.0901 34.3934 64.3111C35.3134 66.532 36.6618 68.55 38.3616 70.2499C40.0615 71.9497 42.0795 73.2981 44.3004 74.2181C46.5214 75.138 48.9018 75.6115 51.3057 75.6115C53.7097 75.6115 56.0901 75.138 58.3111 74.2181C60.532 73.2981 62.55 71.9497 64.2499 70.2499C65.9497 68.55 67.2981 66.532 68.2181 64.3111C69.138 62.0901 69.6115 59.7097 69.6115 57.3057C69.6115 52.4508 67.6829 47.7946 64.2499 44.3616C60.8169 40.9286 56.1607 39 51.3057 39ZM41.0397 47.0397C43.7624 44.317 47.4552 42.7874 51.3057 42.7874C55.1563 42.7874 58.8491 44.317 61.5718 47.0397C64.2945 49.7624 65.8241 53.4552 65.8241 57.3057C65.8241 59.2123 65.4486 61.1002 64.719 62.8617C63.9893 64.6231 62.9199 66.2236 61.5718 67.5718C60.2236 68.9199 58.6231 69.9893 56.8617 70.719C55.1002 71.4486 53.2123 71.8241 51.3057 71.8241C49.3992 71.8241 47.5113 71.4486 45.7498 70.719C43.9884 69.9893 42.3879 68.9199 41.0397 67.5718C39.6916 66.2236 38.6222 64.6231 37.8925 62.8617C37.1629 61.1002 36.7874 59.2123 36.7874 57.3057C36.7874 53.4552 38.317 49.7624 41.0397 47.0397Z" fill="black"/>
<path d="M41.0397 47.0397L40.6862 46.6862L41.0397 47.0397ZM61.5718 47.0397L61.9253 46.6862V46.6862L61.5718 47.0397ZM64.719 62.8617L65.1809 63.053L64.719 62.8617ZM61.5718 67.5718L61.9253 67.9253L61.5718 67.5718ZM56.8617 70.719L57.053 71.1809L56.8617 70.719ZM45.7498 70.719L45.5585 71.1809L45.7498 70.719ZM41.0397 67.5718L40.6862 67.9253H40.6862L41.0397 67.5718ZM37.8925 62.8617L38.3545 62.6703L37.8925 62.8617ZM38.3616 44.3616L38.7152 44.7152L38.3616 44.3616ZM34.3934 64.3111L33.9315 64.5024H33.9315L34.3934 64.3111ZM38.3616 70.2499L38.7152 69.8963H38.7152L38.3616 70.2499ZM44.3004 74.2181L44.1091 74.68L44.3004 74.2181ZM64.2499 70.2499L63.8963 69.8963L64.2499 70.2499ZM64.2499 44.3616L64.6034 44.0081L64.2499 44.3616ZM49.2211 59.5544L49.5265 59.1585L49.2211 59.5544ZM56.7311 65.3478L57.0365 64.952L56.7311 65.3478ZM59.3785 65.1646L59.0164 64.8197H59.0164L59.3785 65.1646ZM59.1748 62.7819L58.8694 63.1778L59.1748 62.7819ZM52.3204 57.4942H51.8204C51.8204 57.6492 51.8923 57.7955 52.015 57.8901L52.3204 57.4942ZM51.3057 42.2874C47.3226 42.2874 43.5027 43.8697 40.6862 46.6862L41.3933 47.3933C44.0222 44.7643 47.5879 43.2874 51.3057 43.2874V42.2874ZM61.9253 46.6862C59.1088 43.8697 55.2889 42.2874 51.3057 42.2874V43.2874C55.0236 43.2874 58.5893 44.7643 61.2182 47.3933L61.9253 46.6862ZM66.3241 57.3057C66.3241 53.3226 64.7418 49.5027 61.9253 46.6862L61.2182 47.3933C63.8472 50.0222 65.3241 53.5879 65.3241 57.3057H66.3241ZM65.1809 63.053C65.9356 61.2309 66.3241 59.278 66.3241 57.3057H65.3241C65.3241 59.1467 64.9615 60.9696 64.257 62.6703L65.1809 63.053ZM61.9253 67.9253C63.3199 66.5307 64.4262 64.8751 65.1809 63.053L64.257 62.6703C63.5525 64.3711 62.5199 65.9165 61.2182 67.2182L61.9253 67.9253ZM57.053 71.1809C58.8751 70.4262 60.5307 69.3199 61.9253 67.9253L61.2182 67.2182C59.9165 68.5199 58.3711 69.5525 56.6703 70.257L57.053 71.1809ZM51.3057 72.3241C53.278 72.3241 55.2309 71.9356 57.053 71.1809L56.6703 70.257C54.9696 70.9615 53.1467 71.3241 51.3057 71.3241V72.3241ZM45.5585 71.1809C47.3806 71.9356 49.3335 72.3241 51.3057 72.3241V71.3241C49.4648 71.3241 47.6419 70.9615 45.9412 70.257L45.5585 71.1809ZM40.6862 67.9253C42.0808 69.3199 43.7364 70.4262 45.5585 71.1809L45.9412 70.257C44.2404 69.5525 42.695 68.5199 41.3933 67.2182L40.6862 67.9253ZM37.4306 63.053C38.1853 64.8751 39.2916 66.5307 40.6862 67.9253L41.3933 67.2182C40.0916 65.9165 39.059 64.3711 38.3545 62.6703L37.4306 63.053ZM36.2874 57.3057C36.2874 59.278 36.6759 61.2309 37.4306 63.053L38.3545 62.6703C37.65 60.9696 37.2874 59.1467 37.2874 57.3057H36.2874ZM40.6862 46.6862C37.8697 49.5027 36.2874 53.3226 36.2874 57.3057H37.2874C37.2874 53.5879 38.7643 50.0222 41.3933 47.3933L40.6862 46.6862ZM38.7152 44.7152C42.0544 41.376 46.5834 39.5 51.3057 39.5V38.5C46.3182 38.5 41.5348 40.4813 38.0081 44.0081L38.7152 44.7152ZM33.5 57.3057C33.5 52.5834 35.376 48.0544 38.7152 44.7152L38.0081 44.0081C34.4813 47.5348 32.5 52.3182 32.5 57.3057H33.5ZM34.8554 64.1197C33.9606 61.9594 33.5 59.644 33.5 57.3057H32.5C32.5 59.7754 32.9864 62.2208 33.9315 64.5024L34.8554 64.1197ZM38.7152 69.8963C37.0618 68.2429 35.7502 66.28 34.8554 64.1197L33.9315 64.5024C34.8766 66.784 36.2618 68.8571 38.0081 70.6034L38.7152 69.8963ZM44.4918 73.7561C42.3315 72.8613 40.3686 71.5497 38.7152 69.8963L38.0081 70.6034C39.7543 72.3497 41.8275 73.7349 44.1091 74.68L44.4918 73.7561ZM51.3057 75.1115C48.9675 75.1115 46.6521 74.6509 44.4918 73.7561L44.1091 74.68C46.3907 75.6251 48.8361 76.1115 51.3057 76.1115V75.1115ZM58.1197 73.7561C55.9594 74.6509 53.644 75.1115 51.3057 75.1115V76.1115C53.7754 76.1115 56.2208 75.6251 58.5024 74.68L58.1197 73.7561ZM63.8963 69.8963C62.2429 71.5497 60.28 72.8613 58.1197 73.7561L58.5024 74.68C60.784 73.7349 62.8571 72.3497 64.6034 70.6034L63.8963 69.8963ZM67.7561 64.1197C66.8613 66.28 65.5497 68.2429 63.8963 69.8963L64.6034 70.6034C66.3497 68.8571 67.7349 66.784 68.68 64.5024L67.7561 64.1197ZM69.1115 57.3057C69.1115 59.644 68.6509 61.9594 67.7561 64.1197L68.68 64.5024C69.6251 62.2208 70.1115 59.7754 70.1115 57.3057H69.1115ZM63.8963 44.7152C67.2355 48.0544 69.1115 52.5834 69.1115 57.3057H70.1115C70.1115 52.3182 68.1302 47.5348 64.6034 44.0081L63.8963 44.7152ZM51.3057 39.5C56.0281 39.5 60.5571 41.376 63.8963 44.7152L64.6034 44.0081C61.0767 40.4813 56.2933 38.5 51.3057 38.5V39.5ZM50.4429 49.3571C51.2546 49.3571 51.8204 49.938 51.8204 50.5468H52.8204C52.8204 49.2892 51.7051 48.3571 50.4429 48.3571V49.3571ZM49.0654 50.5468C49.0654 49.938 49.6313 49.3571 50.4429 49.3571V48.3571C49.1807 48.3571 48.0654 49.2892 48.0654 50.5468H49.0654ZM49.0654 58.2714V50.5468H48.0654V58.2714H49.0654ZM49.5265 59.1585C49.2237 58.925 49.0654 58.5983 49.0654 58.2714H48.0654C48.0654 58.9311 48.3861 59.5418 48.9157 59.9503L49.5265 59.1585ZM57.0365 64.952L49.5265 59.1585L48.9157 59.9503L56.4257 65.7437L57.0365 64.952ZM59.0164 64.8197C58.5226 65.3382 57.6262 65.4069 57.0365 64.952L56.4257 65.7437C57.4106 66.5035 58.8847 66.4081 59.7405 65.5094L59.0164 64.8197ZM58.8694 63.1778C59.4289 63.6094 59.4805 64.3324 59.0164 64.8197L59.7405 65.5094C60.626 64.5796 60.4954 63.1691 59.4802 62.386L58.8694 63.1778ZM52.015 57.8901L58.8694 63.1778L59.4802 62.386L52.6258 57.0984L52.015 57.8901ZM51.8204 50.5468V57.4942H52.8204V50.5468H51.8204Z" fill="black"/>
<path d="M456.051 77.128C459.589 77.128 462.906 76.3171 465.855 74.5478C468.804 72.7786 471.015 70.4933 472.637 67.5446L467.182 64.3747C466.15 66.3651 464.602 67.9132 462.685 69.0926C460.695 70.2721 458.483 70.7882 456.051 70.7882C452.365 70.7882 449.268 69.535 446.762 67.0285C444.256 64.5221 443.076 61.4259 443.076 57.74C443.076 54.0541 444.256 50.8842 446.762 48.3777C449.268 45.8713 452.365 44.6181 456.051 44.6181C458.483 44.6181 460.695 45.2078 462.612 46.3873C464.528 47.5668 466.003 49.1886 466.961 51.1053L472.342 48.0091C470.868 45.0604 468.73 42.7751 465.855 41.0059C462.906 39.2366 459.663 38.352 456.051 38.352C450.448 38.352 445.877 40.2687 442.191 43.9546C438.506 47.6406 436.663 52.2848 436.663 57.74C436.663 63.2689 438.506 67.9131 442.191 71.5991C445.877 75.285 450.448 77.128 456.051 77.128Z" fill="url(#paint1_linear_1078_2295)"/>
<path d="M497.325 38.352C491.944 38.352 487.963 40.4899 485.383 44.6181V24.5667H478.97V76.1696H485.383V56.6342C485.383 52.506 486.341 49.4835 488.332 47.4931C490.248 45.5027 492.829 44.4707 496.072 44.4707C498.874 44.4707 501.159 45.3553 502.781 46.9771C504.402 48.5989 505.213 50.9579 505.213 53.9066V76.1696H511.627V53.538C511.627 48.8938 510.3 45.2078 507.72 42.4803C505.066 39.7527 501.601 38.352 497.325 38.352Z" fill="url(#paint2_linear_1078_2295)"/>
<path d="M551.1 39.3104V45.6502C547.856 40.7847 543.212 38.352 537.167 38.352C532.007 38.352 527.583 40.2687 523.971 44.0283C520.285 47.788 518.516 52.3585 518.516 57.74C518.516 63.1952 520.285 67.7657 523.971 71.5254C527.583 75.285 532.007 77.128 537.167 77.128C543.212 77.128 547.856 74.6953 551.1 69.8298V76.1696H557.513V39.3104H551.1ZM537.978 70.9356C534.292 70.9356 531.196 69.6824 528.689 67.176C526.183 64.6695 524.93 61.4996 524.93 57.74C524.93 54.0541 526.183 50.8842 528.689 48.3777C531.196 45.8713 534.292 44.5444 537.978 44.5444C541.664 44.5444 544.834 45.8713 547.34 48.3777C549.846 50.8842 551.1 54.0541 551.1 57.74C551.1 61.4996 549.846 64.6695 547.34 67.176C544.834 69.6824 541.664 70.9356 537.978 70.9356Z" fill="url(#paint3_linear_1078_2295)"/>
<path d="M585.586 38.352C580.205 38.352 576.224 40.4899 573.644 44.6181V39.3104H567.23V76.1696H573.644V56.6342C573.644 52.506 574.602 49.4835 576.592 47.4931C578.509 45.5027 581.089 44.4707 584.333 44.4707C587.134 44.4707 589.419 45.3553 591.041 46.9771C592.663 48.5989 593.474 50.9579 593.474 53.9066V76.1696H599.887V53.538C599.887 48.8938 598.561 45.2078 595.98 42.4803C593.327 39.7527 589.862 38.352 585.586 38.352Z" fill="url(#paint4_linear_1078_2295)"/>
<path d="M639.434 39.3104V45.6502C636.19 40.7847 631.62 38.352 625.575 38.352C620.267 38.352 615.844 40.2687 612.232 43.9546C608.546 47.6406 606.777 52.2111 606.777 57.5188C606.777 62.9003 608.546 67.4708 612.232 71.1568C615.844 74.9164 620.267 76.7594 625.575 76.7594C631.546 76.7594 636.19 74.3267 639.434 69.3875V74.6215C639.434 78.16 638.328 80.8876 636.117 82.878C633.905 84.9421 630.956 85.9005 627.123 85.9005C621.078 85.9005 617.097 83.8364 615.107 79.7081L609.504 82.878C610.979 85.8268 613.264 88.0383 616.286 89.5864C619.235 91.1345 622.847 91.8717 626.976 91.8717C632.136 91.8717 636.559 90.3973 640.245 87.3748C643.931 84.3524 645.774 80.0767 645.774 74.6215V39.3104H639.434ZM626.312 70.6407C622.552 70.6407 619.456 69.3875 616.95 66.8811C614.443 64.3747 613.19 61.2785 613.19 57.5188C613.19 53.8329 614.443 50.7367 616.95 48.2303C619.456 45.7239 622.552 44.4707 626.312 44.4707C629.998 44.4707 633.168 45.7239 635.674 48.2303C638.181 50.7367 639.434 53.8329 639.434 57.5188C639.434 61.2785 638.181 64.3747 635.674 66.8811C633.168 69.3875 629.998 70.6407 626.312 70.6407Z" fill="url(#paint5_linear_1078_2295)"/>
<path d="M659.988 60.6887H690.876C691.023 59.7304 691.097 58.7721 691.097 57.8137C691.097 52.506 689.328 47.9354 685.937 44.1021C682.546 40.2687 678.122 38.352 672.741 38.352C666.991 38.352 662.347 40.195 658.808 43.8809C655.196 47.5668 653.427 52.2111 653.427 57.74C653.427 63.3426 655.196 67.9869 658.882 71.6728C662.568 75.3587 667.286 77.128 673.183 77.128C680.408 77.128 685.789 74.4004 689.401 68.7978L683.946 65.7016C681.735 69.3138 678.196 71.083 673.331 71.083C669.792 71.083 666.844 70.1984 664.485 68.3555C662.126 66.5862 660.577 64.0061 659.988 60.6887ZM672.741 44.3969C675.69 44.3969 678.27 45.3553 680.481 47.1245C682.693 48.9675 684.02 51.6214 684.61 55.0861H659.988C660.504 51.8425 661.904 49.2624 664.19 47.3457C666.401 45.429 669.276 44.3969 672.741 44.3969Z" fill="url(#paint6_linear_1078_2295)"/>
<path d="M698.469 76.1696H704.883V22.3551H698.469V76.1696Z" fill="url(#paint7_linear_1078_2295)"/>
<path d="M731.991 77.128C737.373 77.128 741.943 75.285 745.776 71.5254C749.536 67.8394 751.453 63.1952 751.453 57.74C751.453 52.2848 749.536 47.7143 745.776 43.9546C741.943 40.2687 737.373 38.352 731.991 38.352C726.536 38.352 721.965 40.2687 718.206 43.9546C714.446 47.7143 712.603 52.2848 712.603 57.74C712.603 63.1952 714.446 67.8394 718.206 71.5254C721.965 75.285 726.536 77.128 731.991 77.128ZM731.991 70.8619C728.305 70.8619 725.283 69.6087 722.776 67.1022C720.27 64.5958 719.017 61.4996 719.017 57.74C719.017 54.0541 720.27 50.8842 722.776 48.3777C725.283 45.8713 728.305 44.6181 731.991 44.6181C735.677 44.6181 738.773 45.8713 741.28 48.3777C743.786 50.8842 745.039 54.0541 745.039 57.74C745.039 61.4996 743.786 64.5958 741.28 67.1022C738.773 69.6087 735.677 70.8619 731.991 70.8619Z" fill="url(#paint8_linear_1078_2295)"/>
<path d="M789.607 39.3104V45.6502C786.363 40.7847 781.793 38.352 775.748 38.352C770.44 38.352 766.017 40.2687 762.405 43.9546C758.719 47.6406 756.949 52.2111 756.949 57.5188C756.949 62.9003 758.719 67.4708 762.405 71.1568C766.017 74.9164 770.44 76.7594 775.748 76.7594C781.719 76.7594 786.363 74.3267 789.607 69.3875V74.6215C789.607 78.16 788.501 80.8876 786.289 82.878C784.078 84.9421 781.129 85.9005 777.296 85.9005C771.251 85.9005 767.27 83.8364 765.28 79.7081L759.677 82.878C761.151 85.8268 763.437 88.0383 766.459 89.5864C769.408 91.1345 773.02 91.8717 777.148 91.8717C782.309 91.8717 786.732 90.3973 790.418 87.3748C794.104 84.3524 795.947 80.0767 795.947 74.6215V39.3104H789.607ZM776.485 70.6407C772.725 70.6407 769.629 69.3875 767.123 66.8811C764.616 64.3747 763.363 61.2785 763.363 57.5188C763.363 53.8329 764.616 50.7367 767.123 48.2303C769.629 45.7239 772.725 44.4707 776.485 44.4707C780.171 44.4707 783.341 45.7239 785.847 48.2303C788.354 50.7367 789.607 53.8329 789.607 57.5188C789.607 61.2785 788.354 64.3747 785.847 66.8811C783.341 69.3875 780.171 70.6407 776.485 70.6407Z" fill="url(#paint9_linear_1078_2295)"/>
<defs>
<linearGradient id="paint0_linear_1078_2295" x1="0" y1="0" x2="113.226" y2="101.299" gradientUnits="userSpaceOnUse">
<stop stop-color="#FACC15"/>
<stop offset="1" stop-color="#F97316"/>
</linearGradient>
<linearGradient id="paint1_linear_1078_2295" x1="436.663" y1="22.3551" x2="462.593" y2="156.371" gradientUnits="userSpaceOnUse">
<stop stop-color="#FACC15"/>
<stop offset="1" stop-color="#F97316"/>
</linearGradient>
<linearGradient id="paint2_linear_1078_2295" x1="436.663" y1="22.3551" x2="462.593" y2="156.371" gradientUnits="userSpaceOnUse">
<stop stop-color="#FACC15"/>
<stop offset="1" stop-color="#F97316"/>
</linearGradient>
<linearGradient id="paint3_linear_1078_2295" x1="436.663" y1="22.3551" x2="462.593" y2="156.371" gradientUnits="userSpaceOnUse">
<stop stop-color="#FACC15"/>
<stop offset="1" stop-color="#F97316"/>
</linearGradient>
<linearGradient id="paint4_linear_1078_2295" x1="436.663" y1="22.3551" x2="462.593" y2="156.371" gradientUnits="userSpaceOnUse">
<stop stop-color="#FACC15"/>
<stop offset="1" stop-color="#F97316"/>
</linearGradient>
<linearGradient id="paint5_linear_1078_2295" x1="436.663" y1="22.3551" x2="462.593" y2="156.371" gradientUnits="userSpaceOnUse">
<stop stop-color="#FACC15"/>
<stop offset="1" stop-color="#F97316"/>
</linearGradient>
<linearGradient id="paint6_linear_1078_2295" x1="436.663" y1="22.3551" x2="462.593" y2="156.371" gradientUnits="userSpaceOnUse">
<stop stop-color="#FACC15"/>
<stop offset="1" stop-color="#F97316"/>
</linearGradient>
<linearGradient id="paint7_linear_1078_2295" x1="436.663" y1="22.3551" x2="462.593" y2="156.371" gradientUnits="userSpaceOnUse">
<stop stop-color="#FACC15"/>
<stop offset="1" stop-color="#F97316"/>
</linearGradient>
<linearGradient id="paint8_linear_1078_2295" x1="436.663" y1="22.3551" x2="462.593" y2="156.371" gradientUnits="userSpaceOnUse">
<stop stop-color="#FACC15"/>
<stop offset="1" stop-color="#F97316"/>
</linearGradient>
<linearGradient id="paint9_linear_1078_2295" x1="436.663" y1="22.3551" x2="462.593" y2="156.371" gradientUnits="userSpaceOnUse">
<stop stop-color="#FACC15"/>
<stop offset="1" stop-color="#F97316"/>
</linearGradient>
</defs>
</svg>
