<svg width="540" height="104" viewBox="0 0 540 104" fill="none" xmlns="http://www.w3.org/2000/svg">
<path d="M114.582 30.8534H123.611V22.4888H114.582V30.8534ZM106.745 80.9101H111.063C118.416 80.9101 123.611 75.7087 123.611 68.3895V35.3232H114.582V67.7099C114.582 70.925 112.855 72.5981 109.649 72.5981H106.732V80.9101H106.745ZM159.424 35.3232L158.495 38.4861C155.459 35.8196 151.546 34.3633 147.503 34.3953C137.493 34.3953 130.022 41.9626 130.022 52.0786C130.022 62.1814 137.48 69.8141 147.503 69.8141C151.756 69.8141 155.459 68.3242 158.311 65.7756L159.109 68.8208H166.149V35.3232H159.424ZM148.236 61.2534C147.028 61.279 145.827 61.0583 144.706 60.6048C143.586 60.1514 142.57 59.4748 141.721 58.6163C140.871 57.7577 140.205 56.7352 139.764 55.6112C139.323 54.4872 139.116 53.2851 139.155 52.0786C139.11 50.8698 139.314 49.6647 139.753 48.5375C140.191 47.4102 140.856 46.3846 141.707 45.5238C142.558 44.6631 143.576 43.9854 144.699 43.5325C145.822 43.0796 147.026 42.8611 148.236 42.8905C149.446 42.8611 150.651 43.0796 151.773 43.5325C152.896 43.9854 153.915 44.6631 154.765 45.5238C155.616 46.3846 156.281 47.4102 156.72 48.5375C157.158 49.6647 157.362 50.8698 157.317 52.0786C157.36 53.2861 157.156 54.4898 156.716 55.6156C156.276 56.7413 155.611 57.7653 154.76 58.6246C153.91 59.484 152.892 60.1605 151.77 60.6126C150.648 61.0646 149.446 61.2827 148.236 61.2534ZM196.754 35.3232L188.72 57.7769L180.569 35.3232H170.925L184.52 68.8208H192.855L206.07 35.3232H196.741H196.754ZM236.924 35.3232L235.995 38.4861C232.959 35.8196 229.046 34.3633 225.004 34.3953C214.995 34.3953 207.523 41.9626 207.523 52.0786C207.523 62.1814 214.995 69.8141 225.004 69.8141C229.257 69.8141 232.973 68.3242 235.812 65.7756L236.611 68.8208H243.65V35.3232H236.924ZM225.737 61.2534C224.528 61.279 223.328 61.0583 222.208 60.6048C221.087 60.1514 220.072 59.4748 219.221 58.6163C218.372 57.7577 217.706 56.7352 217.265 55.6112C216.824 54.4872 216.616 53.2851 216.656 52.0786C216.611 50.8698 216.814 49.6647 217.253 48.5375C217.692 47.4102 218.358 46.3846 219.208 45.5238C220.059 44.6631 221.077 43.9854 222.2 43.5325C223.323 43.0796 224.526 42.8611 225.737 42.8905C226.948 42.8611 228.151 43.0796 229.274 43.5325C230.397 43.9854 231.415 44.6631 232.266 45.5238C233.116 46.3846 233.782 47.4102 234.221 48.5375C234.66 49.6647 234.862 50.8698 234.817 52.0786C234.861 53.2861 234.656 54.4898 234.216 55.6156C233.777 56.7413 233.111 57.7653 232.261 58.6246C231.41 59.484 230.393 60.1605 229.271 60.6126C228.149 61.0646 226.946 61.2827 225.737 61.2534ZM252.39 30.8534H261.341V22.4888H252.39V30.8534ZM252.39 68.8208H261.406V35.3232H252.377V68.8339L252.39 68.8208ZM281.858 69.8141C290.323 69.8141 295.871 65.3442 295.871 58.5218C295.871 50.3403 288.897 49.2163 283.467 48.223C279.999 47.6087 277.16 47.0467 277.16 44.8248C277.16 42.8905 278.835 41.6489 281.608 41.6489C284.749 41.6489 286.607 42.9559 286.673 45.6221H295.256C295.191 38.9173 289.891 34.3953 281.858 34.3953C273.824 34.3953 268.459 38.7997 268.459 45.1254C268.459 53.0065 275.249 54.4311 280.562 55.359C284.082 55.921 286.973 56.6006 286.973 58.8878C286.973 61.1358 284.697 62.3121 282.224 62.3121C279.018 62.3121 276.728 60.8222 276.663 57.8422H267.896C267.896 64.9783 273.522 69.8141 281.858 69.8141ZM318.507 60.7568C315.171 60.7568 313.326 58.9009 313.326 55.6596V42.6422H322.407V35.3232H313.195V26.6449H311.468L298.318 40.6556V42.6422H304.31V56.9143C304.31 64.2987 308.812 68.8208 316.166 68.8208H322.577V60.7568H318.521H318.507ZM328.74 30.8534H337.703V22.4888H328.74V30.8534ZM328.74 68.8208H337.768V35.3232H328.74V68.8339V68.8208ZM361.922 69.8141C370.624 69.8141 377.48 64.1026 379.025 55.6727H369.943C368.399 59.2669 365.56 61.2534 361.922 61.2534C357.094 61.2534 353.339 57.228 353.339 52.0786C353.339 46.8507 357.042 42.8905 361.922 42.8905C363.635 42.868 365.315 43.3591 366.745 44.3004C368.175 45.2417 369.289 46.5899 369.943 48.1707H378.907C377.297 39.9107 370.624 34.3953 361.975 34.3953C351.847 34.3953 344.18 41.9626 344.18 52.0132C344.18 62.0638 351.847 69.8141 361.922 69.8141Z" fill="white"/>
<path d="M51.5216 1.42775L87.0458 21.9157C88.6648 22.8507 90.0091 24.1941 90.9442 25.8114C91.8787 27.4287 92.372 29.2631 92.3741 31.1307V72.1066C92.3741 75.9082 90.3532 79.4344 87.0458 81.3345L51.5216 101.823C49.8997 102.758 48.0598 103.25 46.187 103.25C44.3142 103.25 42.4744 102.758 40.8525 101.823L5.328 81.3345C3.70743 80.3987 2.36199 79.0529 1.42681 77.4332C0.491589 75.8135 -0.000485077 73.9768 3.58816e-07 72.1066V31.1307C3.58816e-07 27.3294 2.03411 23.8164 5.328 21.9157L40.8525 1.42775C42.4744 0.492415 44.3142 0 46.187 0C48.0598 0 49.8997 0.492415 51.5216 1.42775ZM68.1224 32.3236L50.7473 22.3221C49.1285 21.3916 47.2935 20.9019 45.4259 20.9019C43.5582 20.9019 41.7232 21.3916 40.1044 22.3221L22.7294 32.3236C21.1064 33.258 19.7583 34.6027 18.8207 36.2227C17.8831 37.8426 17.3891 39.6805 17.3882 41.5517V61.5153C17.3882 65.3166 19.4223 68.8559 22.7294 70.7434L40.1044 80.7452C41.7232 81.6753 43.5582 82.1649 45.4259 82.1649C47.2935 82.1649 49.1285 81.6753 50.7473 80.7452L68.1224 70.7434C69.7457 69.809 71.0935 68.4642 72.0308 66.8443C72.9689 65.2243 73.4629 63.3865 73.4636 61.5153V41.5517C73.4636 37.7503 71.4162 34.2111 68.1224 32.3236Z" fill="#3884FF"/>
<path d="M45.2985 42.2871C46.9734 41.1743 49.2478 40.4902 51.7516 40.4902C54.2569 40.4902 56.5298 41.1743 58.2048 42.2871V60.9295C56.5298 59.8167 54.2569 59.1326 51.7516 59.1326C49.2478 59.1326 46.9734 59.8167 45.2985 60.9295M45.2985 42.2871V60.9295V42.2871ZM45.2985 42.2871C43.6235 41.1743 41.3492 40.4902 38.8454 40.4902C36.3415 40.4902 34.0672 41.1743 32.3922 42.2871V60.9295C34.0672 59.8167 36.3415 59.1326 38.8454 59.1326C41.3492 59.1326 43.6235 59.8167 45.2985 60.9295V42.2871Z" stroke="white" stroke-width="4.85883" stroke-linecap="round" stroke-linejoin="round"/>
<path d="M425.264 22.0679V41.1752C422.325 36.7659 418.116 34.5612 412.637 34.5612C407.961 34.5612 403.952 36.2982 400.679 39.7054C397.338 43.1127 395.735 47.2549 395.735 52.1319C395.735 57.0758 397.338 61.2179 400.679 64.6252C403.952 68.0325 407.961 69.7027 412.637 69.7027C418.116 69.7027 422.325 67.498 425.264 63.0886V68.8342H431.077V22.0679H425.264ZM413.372 64.0907C410.032 64.0907 407.226 62.955 404.954 60.6835C402.683 58.412 401.547 55.5392 401.547 52.1319C401.547 48.7915 402.683 45.9187 404.954 43.6472C407.226 41.3757 410.032 40.1731 413.372 40.1731C416.713 40.1731 419.586 41.3757 421.857 43.6472C424.129 45.9187 425.264 48.7915 425.264 52.1319C425.264 55.5392 424.129 58.412 421.857 60.6835C419.586 62.955 416.713 64.0907 413.372 64.0907Z" fill="url(#paint0_linear_919_136)"/>
<path d="M455.583 69.7027C460.46 69.7027 464.602 68.0325 468.076 64.6252C471.484 61.2847 473.221 57.0758 473.221 52.1319C473.221 47.1881 471.484 43.0459 468.076 39.6386C464.602 36.2982 460.46 34.5612 455.583 34.5612C450.639 34.5612 446.497 36.2982 443.09 39.6386C439.683 43.0459 438.012 47.1881 438.012 52.1319C438.012 57.0758 439.683 61.2847 443.09 64.6252C446.497 68.0325 450.639 69.7027 455.583 69.7027ZM455.583 64.0239C452.243 64.0239 449.503 62.8882 447.232 60.6167C444.96 58.3452 443.825 55.5392 443.825 52.1319C443.825 48.7915 444.96 45.9187 447.232 43.6472C449.503 41.3757 452.243 40.2399 455.583 40.2399C458.924 40.2399 461.729 41.3757 464.001 43.6472C466.272 45.9187 467.408 48.7915 467.408 52.1319C467.408 55.5392 466.272 58.3452 464.001 60.6167C461.729 62.8882 458.924 64.0239 455.583 64.0239Z" fill="url(#paint1_linear_919_136)"/>
<path d="M495.773 69.7027C498.98 69.7027 501.986 68.9678 504.658 67.3644C507.331 65.761 509.335 63.6899 510.805 61.0175L505.861 58.1447C504.926 59.9486 503.523 61.3516 501.786 62.4205C499.982 63.4894 497.978 63.9571 495.773 63.9571C492.432 63.9571 489.626 62.8214 487.355 60.5498C485.083 58.2783 484.014 55.4724 484.014 52.1319C484.014 48.7915 485.083 45.9187 487.355 43.6472C489.626 41.3757 492.432 40.2399 495.773 40.2399C497.978 40.2399 499.982 40.7744 501.719 41.8433C503.456 42.9123 504.792 44.3821 505.661 46.1191L510.538 43.3131C509.201 40.6408 507.264 38.5697 504.658 36.9663C501.986 35.3629 499.046 34.5612 495.773 34.5612C490.695 34.5612 486.553 36.2982 483.213 39.6386C479.872 42.9791 478.202 47.1881 478.202 52.1319C478.202 57.1426 479.872 61.3516 483.213 64.692C486.553 68.0325 490.695 69.7027 495.773 69.7027Z" fill="url(#paint2_linear_919_136)"/>
<path d="M521.293 44.4489C521.293 43.0459 521.828 41.977 523.03 41.1752C524.166 40.3735 525.569 39.9727 527.239 39.9727C530.78 39.9727 533.185 41.4425 534.388 44.2485L539.265 41.5093C538.196 39.3714 536.593 37.6344 534.455 36.4318C532.317 35.2292 529.912 34.5612 527.239 34.5612C523.832 34.5612 521.026 35.4965 518.755 37.3671C516.483 39.2378 515.414 41.6429 515.414 44.5157C515.414 46.7872 516.015 48.591 517.352 49.994C518.621 51.4638 520.158 52.466 522.028 53.0672C523.832 53.7353 525.636 54.2698 527.507 54.7375C529.31 55.2051 530.847 55.8064 532.183 56.6081C533.453 57.4098 534.121 58.412 534.121 59.6813C534.121 61.2847 533.453 62.4205 532.25 63.1554C530.981 63.8903 529.377 64.2243 527.507 64.2243C525.436 64.2243 523.698 63.7567 522.229 62.8214C520.759 61.886 519.757 60.6167 519.222 59.0132L514.212 61.886C515.147 64.2912 516.817 66.1618 519.155 67.5648C521.427 69.0346 524.233 69.7027 527.507 69.7027C531.114 69.7027 534.121 68.8342 536.459 66.9635C538.797 65.1597 540 62.7545 540 59.6813C540 57.4098 539.332 55.606 538.062 54.1362C536.726 52.6664 535.19 51.6643 533.386 51.063C531.515 50.4617 529.711 49.9272 527.907 49.4596C526.037 48.9919 524.5 48.3906 523.231 47.5889C521.895 46.7872 521.293 45.7851 521.293 44.4489Z" fill="url(#paint3_linear_919_136)"/>
<defs>
<linearGradient id="paint0_linear_919_136" x1="395.735" y1="22.0679" x2="424.099" y2="107.972" gradientUnits="userSpaceOnUse">
<stop stop-color="#A855F7"/>
<stop offset="1" stop-color="#6366F1"/>
</linearGradient>
<linearGradient id="paint1_linear_919_136" x1="395.735" y1="22.0679" x2="424.099" y2="107.972" gradientUnits="userSpaceOnUse">
<stop stop-color="#A855F7"/>
<stop offset="1" stop-color="#6366F1"/>
</linearGradient>
<linearGradient id="paint2_linear_919_136" x1="395.735" y1="22.0679" x2="424.099" y2="107.972" gradientUnits="userSpaceOnUse">
<stop stop-color="#A855F7"/>
<stop offset="1" stop-color="#6366F1"/>
</linearGradient>
<linearGradient id="paint3_linear_919_136" x1="395.735" y1="22.0679" x2="424.099" y2="107.972" gradientUnits="userSpaceOnUse">
<stop stop-color="#A855F7"/>
<stop offset="1" stop-color="#6366F1"/>
</linearGradient>
</defs>
</svg>
