<svg width="588" height="115" viewBox="0 0 588 115" fill="none" xmlns="http://www.w3.org/2000/svg">
<path d="M126.433 35.0424H136.395V25.8127H126.433V35.0424ZM117.784 90.2761H122.549C130.663 90.2761 136.395 84.5368 136.395 76.4606V39.9745H126.433V75.7107C126.433 79.2584 124.527 81.1045 120.989 81.1045H117.77V90.2761H117.784ZM175.912 39.9745L174.887 43.4645C171.537 40.5222 167.219 38.9154 162.758 38.9507C151.713 38.9507 143.469 47.3006 143.469 58.4628C143.469 69.6105 151.699 78.0325 162.758 78.0325C167.451 78.0325 171.537 76.3885 174.684 73.5764L175.565 76.9365H183.332V39.9745H175.912ZM163.567 68.5865C162.234 68.6147 160.909 68.3712 159.672 67.8709C158.436 67.3706 157.315 66.624 156.378 65.6766C155.44 64.7292 154.706 63.601 154.219 62.3608C153.732 61.1205 153.504 59.7942 153.547 58.4628C153.497 57.129 153.722 55.7993 154.206 54.5555C154.69 53.3116 155.424 52.1799 156.363 51.2301C157.302 50.2804 158.425 49.5326 159.664 49.0329C160.903 48.5331 162.231 48.2921 163.567 48.3245C164.903 48.2921 166.231 48.5331 167.47 49.0329C168.709 49.5326 169.833 50.2804 170.771 51.2301C171.71 52.1799 172.444 53.3116 172.928 54.5555C173.412 55.7993 173.637 57.129 173.587 58.4628C173.635 59.7952 173.409 61.1234 172.924 62.3656C172.439 63.6078 171.704 64.7377 170.765 65.6858C169.827 66.6341 168.705 67.3805 167.467 67.8794C166.228 68.3782 164.902 68.6189 163.567 68.5865ZM217.103 39.9745L208.238 64.7505L199.243 39.9745H188.602L203.603 76.9365H212.801L227.383 39.9745H217.089H217.103ZM261.427 39.9745L260.402 43.4645C257.052 40.5222 252.735 38.9154 248.275 38.9507C237.23 38.9507 228.986 47.3006 228.986 58.4628C228.986 69.6105 237.23 78.0325 248.275 78.0325C252.967 78.0325 257.067 76.3885 260.2 73.5764L261.081 76.9365H268.849V39.9745H261.427ZM249.083 68.5865C247.75 68.6147 246.425 68.3712 245.189 67.8709C243.953 67.3706 242.832 66.624 241.894 65.6766C240.956 64.7292 240.221 63.601 239.735 62.3608C239.249 61.1205 239.019 59.7942 239.064 58.4628C239.014 57.129 239.238 55.7993 239.722 54.5555C240.206 53.3116 240.941 52.1799 241.879 51.2301C242.818 50.2804 243.941 49.5326 245.18 49.0329C246.419 48.5331 247.747 48.2921 249.083 48.3245C250.419 48.2921 251.747 48.5331 252.986 49.0329C254.225 49.5326 255.349 50.2804 256.287 51.2301C257.226 52.1799 257.96 53.3116 258.444 54.5555C258.929 55.7993 259.152 57.129 259.103 58.4628C259.151 59.7952 258.925 61.1234 258.439 62.3656C257.954 63.6078 257.22 64.7377 256.282 65.6858C255.343 66.6341 254.221 67.3805 252.982 67.8794C251.745 68.3782 250.418 68.6189 249.083 68.5865ZM278.493 35.0424H288.369V25.8127H278.493V35.0424ZM278.493 76.9365H288.441V39.9745H278.479V76.9509L278.493 76.9365ZM311.008 78.0325C320.349 78.0325 326.471 73.1004 326.471 65.5724C326.471 56.5447 318.775 55.3044 312.783 54.2085C308.957 53.5307 305.824 52.9106 305.824 50.4589C305.824 48.3245 307.673 46.9545 310.733 46.9545C314.198 46.9545 316.248 48.3967 316.321 51.3386H325.792C325.72 43.9404 319.873 38.9507 311.008 38.9507C302.143 38.9507 296.223 43.8106 296.223 50.7905C296.223 59.4866 303.716 61.0586 309.578 62.0825C313.462 62.7026 316.653 63.4525 316.653 65.9763C316.653 68.4567 314.141 69.7547 311.412 69.7547C307.874 69.7547 305.348 68.1107 305.276 64.8225H295.602C295.602 72.6966 301.811 78.0325 311.008 78.0325ZM351.448 68.0385C347.767 68.0385 345.731 65.9907 345.731 62.4142V48.0505H355.751V39.9745H345.587V30.3987H343.68L329.171 45.8584V48.0505H335.783V63.7987C335.783 71.9467 340.75 76.9365 348.864 76.9365H355.939V68.0385H351.463H351.448ZM362.739 35.0424H372.629V25.8127H362.739V35.0424ZM362.739 76.9365H372.701V39.9745H362.739V76.9509V76.9365ZM399.353 78.0325C408.954 78.0325 416.52 71.7304 418.224 62.4286H408.204C406.5 66.3945 403.367 68.5865 399.353 68.5865C394.026 68.5865 389.882 64.1448 389.882 58.4628C389.882 52.6942 393.968 48.3245 399.353 48.3245C401.243 48.2996 403.096 48.8415 404.674 49.8801C406.253 50.9189 407.481 52.4065 408.204 54.1508H418.094C416.318 45.0364 408.954 38.9507 399.411 38.9507C388.236 38.9507 379.775 47.3006 379.775 58.3906C379.775 69.4807 388.236 78.0325 399.353 78.0325Z" fill="black"/>
<path d="M56.8501 2.57419L96.0482 25.1811C97.8347 26.2127 99.318 27.6951 100.35 29.4796C101.381 31.2643 101.925 33.2883 101.928 35.3491V80.5628C101.928 84.7575 99.6977 88.6484 96.0482 90.745L56.8501 113.352C55.0604 114.384 53.0303 114.927 50.9638 114.927C48.8972 114.927 46.8672 114.384 45.0775 113.352L5.87904 90.745C4.09086 89.7124 2.60628 88.2275 1.57437 86.4403C0.542431 84.6531 -0.000535244 82.6264 3.95926e-07 80.5628V35.3491C3.95926e-07 31.1546 2.24448 27.2783 5.87904 25.1811L45.0775 2.57419C46.8672 1.54212 48.8972 0.998779 50.9638 0.998779C53.0303 0.998779 55.0604 1.54212 56.8501 2.57419ZM75.1677 36.6653L55.9957 25.6294C54.2095 24.6027 52.1847 24.0624 50.1239 24.0624C48.0631 24.0624 46.0383 24.6027 44.2521 25.6294L25.0801 36.6653C23.2892 37.6963 21.8017 39.1802 20.7672 40.9677C19.7326 42.7551 19.1875 44.7832 19.1865 46.8478V68.8762C19.1865 73.0706 21.431 76.9759 25.0801 79.0586L44.2521 90.0948C46.0383 91.1212 48.0631 91.6614 50.1239 91.6614C52.1847 91.6614 54.2095 91.1212 55.9957 90.0948L75.1677 79.0586C76.959 78.0275 78.4461 76.5437 79.4804 74.7562C80.5154 72.9688 81.0605 70.9408 81.0613 68.8762V46.8478C81.0613 42.6533 78.8022 38.7481 75.1677 36.6653Z" fill="#3884FF"/>
<path d="M51.3534 72.8382C59.6581 72.8382 66.3904 66.1269 66.3904 57.8481C66.3904 49.5693 59.6581 42.858 51.3534 42.858C43.0486 42.858 36.3163 49.5693 36.3163 57.8481C36.3163 66.1269 43.0486 72.8382 51.3534 72.8382Z" fill="black"/>
<path d="M459.073 39.3509C452.954 39.3509 448.31 41.7836 445.14 46.649V25.5655H438.727V77.1685H445.14V70.8287C448.31 75.6941 452.954 78.1268 459.073 78.1268C464.233 78.1268 468.583 76.2838 472.269 72.5242C475.881 68.7645 477.724 64.194 477.724 58.7388C477.724 53.3574 475.881 48.7868 472.269 45.0272C468.583 41.2675 464.233 39.3509 459.073 39.3509ZM458.262 71.9344C454.503 71.9344 451.406 70.6812 448.9 68.1748C446.393 65.6684 445.14 62.4985 445.14 58.7388C445.14 55.0529 446.393 51.883 448.9 49.3766C451.406 46.8701 454.503 45.5432 458.262 45.5432C461.948 45.5432 465.044 46.8701 467.551 49.3766C470.057 51.883 471.31 55.0529 471.31 58.7388C471.31 62.4985 470.057 65.6684 467.551 68.1748C465.044 70.6812 461.948 71.9344 458.262 71.9344ZM485.377 77.1685H491.79V23.3539H485.377V77.1685ZM518.899 78.1268C524.28 78.1268 528.851 76.2838 532.684 72.5242C536.444 68.8383 538.36 64.194 538.36 58.7388C538.36 53.2837 536.444 48.7131 532.684 44.9535C528.851 41.2675 524.28 39.3509 518.899 39.3509C513.443 39.3509 508.873 41.2675 505.113 44.9535C501.354 48.7131 499.511 53.2837 499.511 58.7388C499.511 64.194 501.354 68.8383 505.113 72.5242C508.873 76.2838 513.443 78.1268 518.899 78.1268ZM518.899 71.8607C515.213 71.8607 512.19 70.6075 509.684 68.1011C507.177 65.5946 505.924 62.4985 505.924 58.7388C505.924 55.0529 507.177 51.883 509.684 49.3766C512.19 46.8701 515.213 45.6169 518.899 45.6169C522.584 45.6169 525.681 46.8701 528.187 49.3766C530.693 51.883 531.947 55.0529 531.947 58.7388C531.947 62.4985 530.693 65.5946 528.187 68.1011C525.681 70.6075 522.584 71.8607 518.899 71.8607ZM576.514 40.3092V46.649C573.271 41.7836 568.7 39.3509 562.655 39.3509C557.347 39.3509 552.924 41.2675 549.312 44.9535C545.626 48.6394 543.857 53.2099 543.857 58.5177C543.857 63.8991 545.626 68.4697 549.312 72.1556C552.924 75.9152 557.347 77.7582 562.655 77.7582C568.626 77.7582 573.271 75.3255 576.514 70.3864V75.6204C576.514 79.1589 575.408 81.8864 573.197 83.8768C570.985 85.941 568.037 86.8993 564.203 86.8993C558.158 86.8993 554.177 84.8352 552.187 80.7069L546.584 83.8768C548.059 86.8256 550.344 89.0371 553.367 90.5852C556.315 92.1333 559.927 92.8705 564.056 92.8705C569.216 92.8705 573.639 91.3961 577.325 88.3737C581.011 85.3512 582.854 81.0755 582.854 75.6204V40.3092H576.514ZM563.392 71.6396C559.633 71.6396 556.536 70.3864 554.03 67.8799C551.524 65.3735 550.27 62.2773 550.27 58.5177C550.27 54.8317 551.524 51.7356 554.03 49.2291C556.536 46.7227 559.633 45.4695 563.392 45.4695C567.078 45.4695 570.248 46.7227 572.755 49.2291C575.261 51.7356 576.514 54.8317 576.514 58.5177C576.514 62.2773 575.261 65.3735 572.755 67.8799C570.248 70.3864 567.078 71.6396 563.392 71.6396Z" fill="#3884FF"/>
</svg>