<svg width="540" height="146" viewBox="0 0 540 146" fill="none" xmlns="http://www.w3.org/2000/svg">
    <path
        d="M114.582 51.45H123.611V43.0854H114.582V51.45ZM106.744 101.507H111.063C118.416 101.507 123.611 96.3054 123.611 88.9862V55.9199H114.582V88.3066C114.582 91.5217 112.855 93.1948 109.649 93.1948H106.732V101.507H106.744ZM159.424 55.9199L158.495 59.0828C155.459 56.4162 151.546 54.96 147.503 54.992C137.493 54.992 130.022 62.5593 130.022 72.6752C130.022 82.7781 137.48 90.4107 147.503 90.4107C151.756 90.4107 155.459 88.9209 158.311 86.3722L159.109 89.4174H166.149V55.9199H159.424ZM148.236 81.8501C147.028 81.8756 145.827 81.655 144.706 81.2015C143.586 80.7481 142.57 80.0715 141.721 79.213C140.871 78.3544 140.205 77.3319 139.764 76.2079C139.323 75.0839 139.116 73.8818 139.155 72.6752C139.11 71.4665 139.314 70.2614 139.753 69.1342C140.191 68.0069 140.856 66.9812 141.707 66.1205C142.558 65.2598 143.576 64.5821 144.699 64.1292C145.822 63.6763 147.026 63.4578 148.236 63.4872C149.446 63.4578 150.651 63.6763 151.773 64.1292C152.896 64.5821 153.915 65.2598 154.765 66.1205C155.616 66.9812 156.281 68.0069 156.72 69.1342C157.158 70.2614 157.362 71.4665 157.317 72.6752C157.36 73.8828 157.156 75.0865 156.716 76.2122C156.276 77.338 155.611 78.362 154.76 79.2213C153.91 80.0807 152.892 80.7572 151.77 81.2093C150.648 81.6613 149.446 81.8794 148.236 81.8501ZM196.754 55.9199L188.72 78.3736L180.569 55.9199H170.925L184.52 89.4174H192.855L206.07 55.9199H196.741H196.754ZM236.924 55.9199L235.995 59.0828C232.959 56.4162 229.046 54.96 225.004 54.992C214.994 54.992 207.523 62.5593 207.523 72.6752C207.523 82.7781 214.994 90.4107 225.004 90.4107C229.257 90.4107 232.973 88.9209 235.812 86.3722L236.611 89.4174H243.65V55.9199H236.924ZM225.737 81.8501C224.528 81.8756 223.328 81.655 222.207 81.2015C221.087 80.7481 220.072 80.0715 219.221 79.213C218.372 78.3544 217.706 77.3319 217.265 76.2079C216.824 75.0839 216.616 73.8818 216.656 72.6752C216.611 71.4665 216.814 70.2614 217.253 69.1342C217.692 68.0069 218.358 66.9812 219.208 66.1205C220.059 65.2598 221.077 64.5821 222.2 64.1292C223.323 63.6763 224.526 63.4578 225.737 63.4872C226.948 63.4578 228.151 63.6763 229.274 64.1292C230.397 64.5821 231.415 65.2598 232.266 66.1205C233.116 66.9812 233.782 68.0069 234.221 69.1342C234.66 70.2614 234.862 71.4665 234.817 72.6752C234.861 73.8828 234.656 75.0865 234.216 76.2122C233.777 77.338 233.111 78.362 232.261 79.2213C231.41 80.0807 230.393 80.7572 229.271 81.2093C228.149 81.6613 226.946 81.8794 225.737 81.8501ZM252.39 51.45H261.341V43.0854H252.39V51.45ZM252.39 89.4174H261.406V55.9199H252.377V89.4305L252.39 89.4174ZM281.857 90.4107C290.323 90.4107 295.871 85.9409 295.871 79.1185C295.871 70.937 288.897 69.8129 283.467 68.8197C279.999 68.2054 277.159 67.6434 277.159 65.4215C277.159 63.4872 278.835 62.2456 281.608 62.2456C284.749 62.2456 286.607 63.5526 286.673 66.2188H295.256C295.191 59.514 289.891 54.992 281.857 54.992C273.824 54.992 268.459 59.3964 268.459 65.7221C268.459 73.6031 275.249 75.0278 280.562 75.9557C284.082 76.5177 286.973 77.1973 286.973 79.4845C286.973 81.7325 284.697 82.9087 282.224 82.9087C279.018 82.9087 276.728 81.4188 276.663 78.4389H267.895C267.895 85.575 273.522 90.4107 281.857 90.4107ZM318.507 81.3534C315.171 81.3534 313.326 79.4976 313.326 76.2563V63.2389H322.407V55.9199H313.195V47.2416H311.468L298.318 61.2523V63.2389H304.31V77.511C304.31 84.8954 308.812 89.4174 316.166 89.4174H322.577V81.3534H318.521H318.507ZM328.74 51.45H337.703V43.0854H328.74V51.45ZM328.74 89.4174H337.768V55.9199H328.74V89.4305V89.4174ZM361.922 90.4107C370.624 90.4107 377.48 84.6993 379.025 76.2694H369.943C368.399 79.8635 365.56 81.8501 361.922 81.8501C357.094 81.8501 353.339 77.8247 353.339 72.6752C353.339 67.4474 357.042 63.4872 361.922 63.4872C363.635 63.4646 365.315 63.9558 366.744 64.897C368.175 65.8384 369.289 67.1866 369.943 68.7674H378.907C377.297 60.5073 370.624 54.992 361.975 54.992C351.847 54.992 344.18 62.5593 344.18 72.6098C344.18 82.6605 351.847 90.4107 361.922 90.4107Z"
        fill="black" />
    <path
        d="M51.5216 22.0244L87.0458 42.5124C88.6648 43.4473 90.0091 44.7908 90.9442 46.4081C91.8787 48.0254 92.372 49.8598 92.3741 51.7274V92.7033C92.3741 96.5049 90.3532 100.031 87.0458 101.931L51.5216 122.419C49.8997 123.354 48.0598 123.847 46.187 123.847C44.3142 123.847 42.4744 123.354 40.8525 122.419L5.328 101.931C3.70743 100.995 2.36199 99.6496 1.42681 98.0299C0.491589 96.4102 -0.000485077 94.5735 3.58816e-07 92.7033V51.7274C3.58816e-07 47.9261 2.03411 44.413 5.328 42.5124L40.8525 22.0244C42.4744 21.0891 44.3142 20.5967 46.187 20.5967C48.0598 20.5967 49.8997 21.0891 51.5216 22.0244ZM68.1224 52.9202L50.7473 42.9187C49.1285 41.9883 47.2935 41.4986 45.4259 41.4986C43.5582 41.4986 41.7232 41.9883 40.1044 42.9187L22.7294 52.9202C21.1064 53.8546 19.7583 55.1994 18.8207 56.8193C17.8831 58.4393 17.3891 60.2772 17.3882 62.1483V82.112C17.3882 85.9133 19.4223 89.4525 22.7294 91.3401L40.1044 101.342C41.7232 102.272 43.5582 102.762 45.4259 102.762C47.2935 102.762 49.1285 102.272 50.7473 101.342L68.1224 91.3401C69.7457 90.4056 71.0935 89.0609 72.0308 87.4409C72.9689 85.821 73.4629 83.9831 73.4636 82.112V62.1483C73.4636 58.347 71.4162 54.8078 68.1224 52.9202Z"
        fill="#3884FF" />
    <path
        d="M45.2984 62.8838C46.9734 61.7709 49.2478 61.0869 51.7516 61.0869C54.2568 61.0869 56.5298 61.7709 58.2047 62.8838V81.5262C56.5298 80.4134 54.2568 79.7293 51.7516 79.7293C49.2478 79.7293 46.9734 80.4134 45.2984 81.5262M45.2984 62.8838V81.5262V62.8838ZM45.2984 62.8838C43.6235 61.7709 41.3491 61.0869 38.8453 61.0869C36.3415 61.0869 34.0671 61.7709 32.3922 62.8838V81.5262C34.0671 80.4134 36.3415 79.7293 38.8453 79.7293C41.3491 79.7293 43.6235 80.4134 45.2984 81.5262V62.8838Z"
        stroke="black" stroke-width="4.85883" stroke-linecap="round" stroke-linejoin="round" />
    <path
        d="M425.264 42.6646V61.7719C422.325 57.3625 418.116 55.1578 412.637 55.1578C407.961 55.1578 403.952 56.8949 400.679 60.3021C397.338 63.7094 395.735 67.8515 395.735 72.7286C395.735 77.6725 397.338 81.8146 400.679 85.2219C403.952 88.6291 407.961 90.2994 412.637 90.2994C418.116 90.2994 422.325 88.0947 425.264 83.6853V89.4308H431.077V42.6646H425.264ZM413.372 84.6874C410.032 84.6874 407.226 83.5517 404.954 81.2801C402.683 79.0086 401.547 76.1359 401.547 72.7286C401.547 69.3881 402.683 66.5154 404.954 64.2439C407.226 61.9723 410.032 60.7698 413.372 60.7698C416.713 60.7698 419.586 61.9723 421.857 64.2439C424.129 66.5154 425.264 69.3881 425.264 72.7286C425.264 76.1359 424.129 79.0086 421.857 81.2801C419.586 83.5517 416.713 84.6874 413.372 84.6874Z"
        fill="url(#paint0_linear_917_108)" />
    <path
        d="M455.583 90.2994C460.46 90.2994 464.602 88.6291 468.076 85.2219C471.484 81.8814 473.221 77.6725 473.221 72.7286C473.221 67.7847 471.484 63.6426 468.076 60.2353C464.602 56.8949 460.46 55.1578 455.583 55.1578C450.639 55.1578 446.497 56.8949 443.09 60.2353C439.683 63.6426 438.012 67.7847 438.012 72.7286C438.012 77.6725 439.683 81.8814 443.09 85.2219C446.497 88.6291 450.639 90.2994 455.583 90.2994ZM455.583 84.6206C452.243 84.6206 449.503 83.4848 447.232 81.2133C444.96 78.9418 443.825 76.1359 443.825 72.7286C443.825 69.3881 444.96 66.5154 447.232 64.2439C449.503 61.9723 452.243 60.8366 455.583 60.8366C458.924 60.8366 461.729 61.9723 464.001 64.2439C466.272 66.5154 467.408 69.3881 467.408 72.7286C467.408 76.1359 466.272 78.9418 464.001 81.2133C461.729 83.4848 458.924 84.6206 455.583 84.6206Z"
        fill="url(#paint1_linear_917_108)" />
    <path
        d="M495.773 90.2994C498.98 90.2994 501.986 89.5645 504.658 87.961C507.331 86.3576 509.335 84.2866 510.805 81.6142L505.861 78.7414C504.926 80.5452 503.523 81.9482 501.786 83.0172C499.982 84.0861 497.978 84.5538 495.773 84.5538C492.432 84.5538 489.626 83.418 487.355 81.1465C485.083 78.875 484.014 76.069 484.014 72.7286C484.014 69.3881 485.083 66.5154 487.355 64.2439C489.626 61.9723 492.432 60.8366 495.773 60.8366C497.978 60.8366 499.982 61.3711 501.719 62.44C503.456 63.509 504.792 64.9788 505.661 66.7158L510.538 63.9098C509.201 61.2374 507.264 59.1664 504.658 57.563C501.986 55.9595 499.046 55.1578 495.773 55.1578C490.695 55.1578 486.553 56.8949 483.213 60.2353C479.872 63.5758 478.202 67.7847 478.202 72.7286C478.202 77.7393 479.872 81.9482 483.213 85.2887C486.553 88.6291 490.695 90.2994 495.773 90.2994Z"
        fill="url(#paint2_linear_917_108)" />
    <path
        d="M521.293 65.0456C521.293 63.6426 521.828 62.5736 523.03 61.7719C524.166 60.9702 525.569 60.5694 527.239 60.5694C530.78 60.5694 533.185 62.0392 534.388 64.8451L539.265 62.106C538.196 59.9681 536.593 58.231 534.455 57.0285C532.317 55.8259 529.912 55.1578 527.239 55.1578C523.832 55.1578 521.026 56.0932 518.755 57.9638C516.483 59.8345 515.414 62.2396 515.414 65.1124C515.414 67.3839 516.015 69.1877 517.352 70.5907C518.621 72.0605 520.158 73.0626 522.028 73.6639C523.832 74.332 525.636 74.8665 527.507 75.3341C529.31 75.8018 530.847 76.4031 532.183 77.2048C533.453 78.0065 534.121 79.0086 534.121 80.278C534.121 81.8814 533.453 83.0172 532.25 83.7521C530.981 84.487 529.377 84.821 527.507 84.821C525.436 84.821 523.698 84.3534 522.229 83.418C520.759 82.4827 519.757 81.2133 519.222 79.6099L514.212 82.4827C515.147 84.8878 516.817 86.7585 519.155 88.1615C521.427 89.6313 524.233 90.2994 527.507 90.2994C531.114 90.2994 534.121 89.4308 536.459 87.5602C538.797 85.7563 540 83.3512 540 80.278C540 78.0065 539.332 76.2027 538.062 74.7329C536.726 73.2631 535.19 72.2609 533.386 71.6597C531.515 71.0584 529.711 70.5239 527.907 70.0562C526.037 69.5886 524.5 68.9873 523.231 68.1856C521.895 67.3839 521.293 66.3817 521.293 65.0456Z"
        fill="url(#paint3_linear_917_108)" />
    <defs>
        <linearGradient id="paint0_linear_917_108" x1="395.735" y1="42.6646" x2="424.099" y2="128.568"
            gradientUnits="userSpaceOnUse">
            <stop stop-color="#A855F7" />
            <stop offset="1" stop-color="#6366F1" />
        </linearGradient>
        <linearGradient id="paint1_linear_917_108" x1="395.735" y1="42.6646" x2="424.099" y2="128.568"
            gradientUnits="userSpaceOnUse">
            <stop stop-color="#A855F7" />
            <stop offset="1" stop-color="#6366F1" />
        </linearGradient>
        <linearGradient id="paint2_linear_917_108" x1="395.735" y1="42.6646" x2="424.099" y2="128.568"
            gradientUnits="userSpaceOnUse">
            <stop stop-color="#A855F7" />
            <stop offset="1" stop-color="#6366F1" />
        </linearGradient>
        <linearGradient id="paint3_linear_917_108" x1="395.735" y1="42.6646" x2="424.099" y2="128.568"
            gradientUnits="userSpaceOnUse">
            <stop stop-color="#A855F7" />
            <stop offset="1" stop-color="#6366F1" />
        </linearGradient>
    </defs>
</svg>