<svg width="540" height="82" viewBox="0 0 540 82" fill="none" xmlns="http://www.w3.org/2000/svg">
<path d="M90.2971 24.3139H97.412V17.7222H90.2971V24.3139ZM84.1206 63.7614H87.5236C93.3187 63.7614 97.412 59.6624 97.412 53.8945V27.8364H90.2971V53.3589C90.2971 55.8926 88.9362 57.2111 86.4097 57.2111H84.1105V63.7614H84.1206ZM125.635 27.8364L124.903 30.3289C122.51 28.2276 119.427 27.08 116.241 27.1052C108.352 27.1052 102.464 33.0686 102.464 41.0406C102.464 49.0022 108.342 55.0171 116.241 55.0171C119.592 55.0171 122.51 53.843 124.758 51.8345L125.387 54.2343H130.935V27.8364H125.635ZM116.818 48.2709C115.866 48.291 114.92 48.1171 114.037 47.7597C113.154 47.4024 112.353 46.8692 111.684 46.1926C111.014 45.516 110.49 44.7102 110.142 43.8245C109.794 42.9387 109.631 41.9914 109.662 41.0406C109.627 40.088 109.787 39.1383 110.133 38.25C110.478 37.3616 111.003 36.5534 111.673 35.8751C112.344 35.1968 113.146 34.6627 114.031 34.3058C114.916 33.9489 115.864 33.7767 116.818 33.7999C117.772 33.7767 118.721 33.9489 119.605 34.3058C120.49 34.6627 121.293 35.1968 121.963 35.8751C122.634 36.5534 123.158 37.3616 123.504 38.25C123.85 39.1383 124.01 40.088 123.974 41.0406C124.009 41.9922 123.847 42.9408 123.501 43.8279C123.154 44.7151 122.63 45.522 121.959 46.1992C121.289 46.8764 120.488 47.4096 119.603 47.7658C118.719 48.1221 117.771 48.294 116.818 48.2709ZM155.053 27.8364L148.722 45.5312L142.298 27.8364H134.698L145.412 54.2343H151.98L162.395 27.8364H155.043H155.053ZM186.709 27.8364L185.977 30.3289C183.585 28.2276 180.501 27.08 177.316 27.1052C169.428 27.1052 163.54 33.0686 163.54 41.0406C163.54 49.0022 169.428 55.0171 177.316 55.0171C180.667 55.0171 183.595 53.843 185.833 51.8345L186.462 54.2343H192.01V27.8364H186.709ZM177.893 48.2709C176.941 48.291 175.994 48.1171 175.112 47.7597C174.229 47.4024 173.429 46.8692 172.759 46.1926C172.089 45.516 171.564 44.7102 171.217 43.8245C170.869 42.9387 170.706 41.9914 170.737 41.0406C170.702 40.088 170.862 39.1383 171.208 38.25C171.554 37.3616 172.078 36.5534 172.748 35.8751C173.418 35.1968 174.221 34.6627 175.106 34.3058C175.991 33.9489 176.939 33.7767 177.893 33.7999C178.847 33.7767 179.796 33.9489 180.681 34.3058C181.566 34.6627 182.368 35.1968 183.038 35.8751C183.708 36.5534 184.233 37.3616 184.579 38.25C184.925 39.1383 185.085 40.088 185.049 41.0406C185.083 41.9922 184.922 42.9408 184.575 43.8279C184.229 44.7151 183.705 45.522 183.034 46.1992C182.364 46.8764 181.562 47.4096 180.678 47.7658C179.794 48.1221 178.846 48.294 177.893 48.2709ZM198.897 24.3139H205.951V17.7222H198.897V24.3139ZM198.897 54.2343H206.002V27.8364H198.887V54.2446L198.897 54.2343ZM222.119 55.0171C228.791 55.0171 233.163 51.4946 233.163 46.1182C233.163 39.6707 227.667 38.7849 223.387 38.0022C220.655 37.5181 218.417 37.0752 218.417 35.3242C218.417 33.7999 219.737 32.8214 221.923 32.8214C224.398 32.8214 225.862 33.8514 225.914 35.9525H232.678C232.626 30.6688 228.45 27.1052 222.119 27.1052C215.788 27.1052 211.56 30.5761 211.56 35.5611C211.56 41.7718 216.912 42.8945 221.098 43.6257C223.872 44.0686 226.151 44.6042 226.151 46.4067C226.151 48.1782 224.357 49.1051 222.408 49.1051C219.881 49.1051 218.077 47.931 218.025 45.5826H211.116C211.116 51.2063 215.551 55.0171 222.119 55.0171ZM251.001 47.8795C248.372 47.8795 246.918 46.4169 246.918 43.8626V33.6042H254.075V27.8364H246.815V20.9974H245.454L235.091 32.0386V33.6042H239.813V44.8514C239.813 50.6707 243.361 54.2343 249.156 54.2343H254.208V47.8795H251.012H251.001ZM259.065 24.3139H266.128V17.7222H259.065V24.3139ZM259.065 54.2343H266.18V27.8364H259.065V54.2446V54.2343ZM285.215 55.0171C292.072 55.0171 297.475 50.5162 298.692 43.8729H291.536C290.319 46.7053 288.082 48.2709 285.215 48.2709C281.41 48.2709 278.451 45.0986 278.451 41.0406C278.451 36.9207 281.369 33.7999 285.215 33.7999C286.564 33.7821 287.888 34.1691 289.015 34.9109C290.142 35.6528 291.02 36.7152 291.536 37.961H298.599C297.331 31.4516 292.072 27.1052 285.256 27.1052C277.275 27.1052 271.232 33.0686 271.232 40.989C271.232 48.9095 277.275 55.0171 285.215 55.0171Z" fill="white"/>
<path d="M40.6019 1.12515L68.5969 17.2708C69.8728 18.0076 70.9321 19.0663 71.6691 20.3408C72.4055 21.6154 72.7942 23.0609 72.7959 24.5327V56.824C72.7959 59.8198 71.2033 62.5987 68.5969 64.096L40.6019 80.2419C39.3237 80.9788 37.8738 81.3669 36.3979 81.3669C34.922 81.3669 33.4722 80.9788 32.194 80.2419L4.19876 64.096C2.92166 63.3586 1.86138 62.2981 1.1244 61.0217C0.3874 59.7452 -0.000382267 58.2978 2.82767e-07 56.824V24.5327C2.82767e-07 21.5371 1.60299 18.7686 4.19876 17.2708L32.194 1.12515C33.4722 0.38805 34.922 0 36.3979 0C37.8738 0 39.3237 0.38805 40.6019 1.12515ZM53.6842 25.4728L39.9917 17.591C38.716 16.8577 37.2699 16.4718 35.7981 16.4718C34.3263 16.4718 32.8802 16.8577 31.6045 17.591L17.912 25.4728C16.633 26.2091 15.5706 27.2689 14.8317 28.5455C14.0928 29.822 13.7035 31.2705 13.7029 32.745V48.4775C13.7029 51.4731 15.3058 54.2622 17.912 55.7497L31.6045 63.6317C32.8802 64.3647 34.3263 64.7505 35.7981 64.7505C37.2699 64.7505 38.716 64.3647 39.9917 63.6317L53.6842 55.7497C54.9635 55.0133 56.0256 53.9535 56.7643 52.677C57.5035 51.4004 57.8928 49.952 57.8933 48.4775V32.745C57.8933 29.7493 56.2799 26.9603 53.6842 25.4728Z" fill="#3884FF"/>
<path fill-rule="evenodd" clip-rule="evenodd" d="M39.5832 28.7579C40.1304 28.8671 40.6118 29.1892 40.9216 29.6533C41.2314 30.1174 41.3442 30.6855 41.2352 31.2327L37.0263 52.277C36.9102 52.8176 36.586 53.2908 36.1238 53.5943C35.6616 53.8977 35.0985 54.0071 34.5563 53.8987C34.0141 53.7903 33.5363 53.4729 33.2263 53.0151C32.9163 52.5572 32.7989 51.9958 32.8995 51.4521L37.1084 30.4078C37.2181 29.861 37.5404 29.3801 38.0044 29.0707C38.4684 28.7614 39.0363 28.6489 39.5832 28.7579Z" fill="white"/>
<path fill-rule="evenodd" clip-rule="evenodd" d="M43.9965 35.6459C44.3912 35.2514 44.9263 35.0298 45.4843 35.0298C46.0424 35.0298 46.5775 35.2514 46.9722 35.6459L51.181 39.8548C51.5756 40.2494 51.7972 40.7846 51.7972 41.3426C51.7972 41.9006 51.5756 42.4358 51.181 42.8305L46.9722 47.0393C46.5753 47.4227 46.0437 47.6348 45.4919 47.63C44.9401 47.6252 44.4123 47.4039 44.0222 47.0137C43.632 46.6235 43.4107 46.0957 43.4059 45.5439C43.4011 44.9921 43.6132 44.4606 43.9965 44.0637L46.7175 41.3426L43.9965 38.6216C43.602 38.227 43.3804 37.6918 43.3804 37.1338C43.3804 36.5757 43.602 36.0406 43.9965 35.6459V35.6459ZM30.1367 35.6459C30.5313 36.0406 30.7529 36.5757 30.7529 37.1338C30.7529 37.6918 30.5313 38.227 30.1367 38.6216L27.4157 41.3426L30.1367 44.0637C30.3377 44.2578 30.4981 44.49 30.6083 44.7467C30.7186 45.0035 30.7767 45.2796 30.7791 45.5591C30.7815 45.8385 30.7283 46.1156 30.6225 46.3742C30.5167 46.6329 30.3604 46.8678 30.1628 47.0654C29.9652 47.263 29.7303 47.4193 29.4716 47.5251C29.213 47.6309 28.9359 47.6841 28.6565 47.6817C28.3771 47.6793 28.1009 47.6212 27.8442 47.5109C27.5874 47.4006 27.3552 47.2403 27.1611 47.0393L22.9522 42.8305C22.5577 42.4358 22.3361 41.9006 22.3361 41.3426C22.3361 40.7846 22.5577 40.2494 22.9522 39.8548L27.1611 35.6459C27.5557 35.2514 28.0909 35.0298 28.6489 35.0298C29.2069 35.0298 29.7421 35.2514 30.1367 35.6459V35.6459Z" fill="white"/>
<path d="M327.866 27.2358C323.496 27.2358 320.179 28.9733 317.916 32.4481V27.9203H313.335V64.7747H317.916V49.717C320.179 53.1919 323.496 54.9293 327.866 54.9293C331.552 54.9293 334.658 53.6131 337.29 50.928C339.87 48.2429 341.186 44.9786 341.186 41.0826C341.186 37.2392 339.87 33.9749 337.29 31.2898C334.658 28.6047 331.552 27.2358 327.866 27.2358ZM327.287 50.5068C324.602 50.5068 322.391 49.6117 320.601 47.8217C318.811 46.0316 317.916 43.7677 317.916 41.0826C317.916 38.4501 318.811 36.1862 320.601 34.3961C322.391 32.6061 324.602 31.6584 327.287 31.6584C329.92 31.6584 332.131 32.6061 333.921 34.3961C335.711 36.1862 336.606 38.4501 336.606 41.0826C336.606 43.7677 335.711 46.0316 333.921 47.8217C332.131 49.6117 329.92 50.5068 327.287 50.5068Z" fill="url(#paint0_linear_920_145)"/>
<path d="M351.233 32.3428V27.9203H346.652V54.2449H351.233V40.2928C351.233 37.4498 352.022 35.3438 353.654 34.0276C355.234 32.764 357.182 32.1322 359.446 32.2375V27.4464C355.445 27.4464 352.707 29.0786 351.233 32.3428Z" fill="url(#paint1_linear_920_145)"/>
<path d="M374.861 54.9293C378.704 54.9293 381.968 53.6131 384.706 50.928C387.391 48.2955 388.76 44.9786 388.76 41.0826C388.76 37.1865 387.391 33.9223 384.706 31.2372C381.968 28.6047 378.704 27.2358 374.861 27.2358C370.965 27.2358 367.7 28.6047 365.015 31.2372C362.33 33.9223 361.014 37.1865 361.014 41.0826C361.014 44.9786 362.33 48.2955 365.015 50.928C367.7 53.6131 370.965 54.9293 374.861 54.9293ZM374.861 50.4541C372.228 50.4541 370.069 49.5591 368.279 47.769C366.489 45.9789 365.594 43.7677 365.594 41.0826C365.594 38.4501 366.489 36.1862 368.279 34.3961C370.069 32.6061 372.228 31.711 374.861 31.711C377.493 31.711 379.704 32.6061 381.494 34.3961C383.284 36.1862 384.179 38.4501 384.179 41.0826C384.179 43.7677 383.284 45.9789 381.494 47.769C379.704 49.5591 377.493 50.4541 374.861 50.4541Z" fill="url(#paint2_linear_920_145)"/>
<path d="M416.009 27.9203V32.4481C413.693 28.9733 410.428 27.2358 406.111 27.2358C402.32 27.2358 399.161 28.6047 396.582 31.2372C393.949 33.8696 392.686 37.1339 392.686 40.9246C392.686 44.768 393.949 48.0323 396.582 50.6647C399.161 53.3498 402.32 54.6661 406.111 54.6661C410.376 54.6661 413.693 52.9286 416.009 49.4011V53.1392C416.009 55.6664 415.219 57.6144 413.64 59.0359C412.06 60.5101 409.955 61.1945 407.217 61.1945C402.9 61.1945 400.056 59.7204 398.635 56.772L394.634 59.0359C395.687 61.1419 397.319 62.7214 399.477 63.827C401.583 64.9326 404.163 65.4591 407.111 65.4591C410.797 65.4591 413.956 64.4062 416.588 62.2475C419.221 60.0889 420.537 57.0353 420.537 53.1392V27.9203H416.009ZM406.638 50.2962C403.953 50.2962 401.741 49.4011 399.951 47.6111C398.161 45.821 397.266 43.6097 397.266 40.9246C397.266 38.2922 398.161 36.0809 399.951 34.2908C401.741 32.5008 403.953 31.6057 406.638 31.6057C409.27 31.6057 411.534 32.5008 413.324 34.2908C415.114 36.0809 416.009 38.2922 416.009 40.9246C416.009 43.6097 415.114 45.821 413.324 47.6111C411.534 49.4011 409.27 50.2962 406.638 50.2962Z" fill="url(#paint3_linear_920_145)"/>
<path d="M432.057 32.3428V27.9203H427.477V54.2449H432.057V40.2928C432.057 37.4498 432.847 35.3438 434.479 34.0276C436.059 32.764 438.007 32.1322 440.271 32.2375V27.4464C436.269 27.4464 433.531 29.0786 432.057 32.3428Z" fill="url(#paint4_linear_920_145)"/>
<path d="M465.109 27.9203V32.4481C462.793 28.9733 459.476 27.2358 455.159 27.2358C451.473 27.2358 448.314 28.6047 445.735 31.2898C443.102 33.9749 441.839 37.2392 441.839 41.0826C441.839 44.9786 443.102 48.2429 445.735 50.928C448.314 53.6131 451.473 54.9293 455.159 54.9293C459.476 54.9293 462.793 53.1919 465.109 49.717V54.2449H469.69V27.9203H465.109ZM455.738 50.5068C453.105 50.5068 450.894 49.6117 449.104 47.8217C447.314 46.0316 446.419 43.7677 446.419 41.0826C446.419 38.4501 447.314 36.1862 449.104 34.3961C450.894 32.6061 453.105 31.6584 455.738 31.6584C458.37 31.6584 460.634 32.6061 462.424 34.3961C464.214 36.1862 465.109 38.4501 465.109 41.0826C465.109 43.7677 464.214 46.0316 462.424 47.8217C460.634 49.6117 458.37 50.5068 455.738 50.5068Z" fill="url(#paint5_linear_920_145)"/>
<path d="M505.06 27.2358C501.375 27.2358 498.584 28.7627 496.794 31.711C495.162 28.7627 492.582 27.2358 489.055 27.2358C485.58 27.2358 483 28.6574 481.21 31.4478V27.9203H476.63V54.2449H481.21V39.6084C481.21 36.9759 481.842 34.9753 483.106 33.6064C484.369 32.2902 486.001 31.6057 487.949 31.6057C489.634 31.6057 491.003 32.1849 492.003 33.2905C493.004 34.4488 493.53 36.0282 493.53 38.0289V54.2449H498.111V39.6084C498.111 36.9233 498.69 34.9226 499.848 33.6064C501.006 32.2902 502.586 31.6057 504.586 31.6057C506.324 31.6057 507.745 32.1849 508.798 33.2905C509.851 34.4488 510.378 36.0282 510.378 38.0289V54.2449H514.958V37.871C514.958 34.6067 514.011 32.0269 512.221 30.1315C510.378 28.2362 508.009 27.2358 505.06 27.2358Z" fill="url(#paint6_linear_920_145)"/>
<path d="M525.258 35.0279C525.258 33.9223 525.679 33.0799 526.627 32.4481C527.522 31.8163 528.628 31.5004 529.944 31.5004C532.734 31.5004 534.63 32.6587 535.577 34.87L539.421 32.7114C538.578 31.0266 537.315 29.6577 535.63 28.71C533.945 27.7623 532.05 27.2358 529.944 27.2358C527.259 27.2358 525.048 27.9729 523.258 29.4471C521.467 30.9213 520.625 32.8167 520.625 35.0806C520.625 36.8706 521.099 38.2922 522.152 39.3978C523.152 40.5561 524.363 41.3458 525.837 41.8197C527.259 42.3461 528.68 42.7673 530.155 43.1359C531.576 43.5044 532.787 43.9783 533.84 44.6101C534.84 45.2419 535.367 46.0316 535.367 47.0319C535.367 48.2955 534.84 49.1905 533.893 49.7697C532.892 50.3488 531.629 50.6121 530.155 50.6121C528.523 50.6121 527.154 50.2435 525.995 49.5064C524.837 48.7693 524.047 47.769 523.626 46.5054L519.677 48.7693C520.415 50.6647 521.731 52.1389 523.573 53.2445C525.364 54.4028 527.575 54.9293 530.155 54.9293C532.998 54.9293 535.367 54.2449 537.21 52.7707C539.052 51.3492 540 49.4538 540 47.0319C540 45.2419 539.474 43.8203 538.473 42.662C537.42 41.5038 536.209 40.714 534.788 40.2402C533.314 39.7663 531.892 39.3451 530.471 38.9766C528.996 38.6081 527.785 38.1342 526.785 37.5024C525.732 36.8706 525.258 36.0809 525.258 35.0279Z" fill="url(#paint7_linear_920_145)"/>
<defs>
<linearGradient id="paint0_linear_920_145" x1="313.335" y1="27.2358" x2="325.87" y2="101.569" gradientUnits="userSpaceOnUse">
<stop stop-color="#EC4899"/>
<stop offset="1" stop-color="#F43F5E"/>
<stop offset="1" stop-color="#F43F5E"/>
</linearGradient>
<linearGradient id="paint1_linear_920_145" x1="313.335" y1="27.2358" x2="325.87" y2="101.569" gradientUnits="userSpaceOnUse">
<stop stop-color="#EC4899"/>
<stop offset="1" stop-color="#F43F5E"/>
<stop offset="1" stop-color="#F43F5E"/>
</linearGradient>
<linearGradient id="paint2_linear_920_145" x1="313.335" y1="27.2358" x2="325.87" y2="101.569" gradientUnits="userSpaceOnUse">
<stop stop-color="#EC4899"/>
<stop offset="1" stop-color="#F43F5E"/>
<stop offset="1" stop-color="#F43F5E"/>
</linearGradient>
<linearGradient id="paint3_linear_920_145" x1="313.335" y1="27.2358" x2="325.87" y2="101.569" gradientUnits="userSpaceOnUse">
<stop stop-color="#EC4899"/>
<stop offset="1" stop-color="#F43F5E"/>
<stop offset="1" stop-color="#F43F5E"/>
</linearGradient>
<linearGradient id="paint4_linear_920_145" x1="313.335" y1="27.2358" x2="325.87" y2="101.569" gradientUnits="userSpaceOnUse">
<stop stop-color="#EC4899"/>
<stop offset="1" stop-color="#F43F5E"/>
<stop offset="1" stop-color="#F43F5E"/>
</linearGradient>
<linearGradient id="paint5_linear_920_145" x1="313.335" y1="27.2358" x2="325.87" y2="101.569" gradientUnits="userSpaceOnUse">
<stop stop-color="#EC4899"/>
<stop offset="1" stop-color="#F43F5E"/>
<stop offset="1" stop-color="#F43F5E"/>
</linearGradient>
<linearGradient id="paint6_linear_920_145" x1="313.335" y1="27.2358" x2="325.87" y2="101.569" gradientUnits="userSpaceOnUse">
<stop stop-color="#EC4899"/>
<stop offset="1" stop-color="#F43F5E"/>
<stop offset="1" stop-color="#F43F5E"/>
</linearGradient>
<linearGradient id="paint7_linear_920_145" x1="313.335" y1="27.2358" x2="325.87" y2="101.569" gradientUnits="userSpaceOnUse">
<stop stop-color="#EC4899"/>
<stop offset="1" stop-color="#F43F5E"/>
<stop offset="1" stop-color="#F43F5E"/>
</linearGradient>
</defs>
</svg>
