<svg width="540" height="146" viewBox="0 0 540 146" fill="none" xmlns="http://www.w3.org/2000/svg">
    <path
        d="M90.2971 56.3139H97.412V49.7222H90.2971V56.3139ZM84.1206 95.7614H87.5236C93.3187 95.7614 97.412 91.6624 97.412 85.8945V59.8364H90.2971V85.3589C90.2971 87.8926 88.9362 89.2111 86.4097 89.2111H84.1105V95.7614H84.1206ZM125.635 59.8364L124.903 62.3289C122.51 60.2276 119.427 59.08 116.241 59.1052C108.352 59.1052 102.464 65.0686 102.464 73.0406C102.464 81.0022 108.342 87.0171 116.241 87.0171C119.592 87.0171 122.51 85.843 124.758 83.8345L125.387 86.2343H130.935V59.8364H125.635ZM116.818 80.2709C115.866 80.291 114.92 80.1171 114.037 79.7597C113.154 79.4024 112.353 78.8692 111.684 78.1926C111.014 77.516 110.49 76.7102 110.142 75.8245C109.794 74.9387 109.631 73.9914 109.662 73.0406C109.627 72.088 109.787 71.1383 110.133 70.25C110.478 69.3616 111.003 68.5534 111.673 67.8751C112.344 67.1968 113.146 66.6627 114.031 66.3058C114.916 65.9489 115.864 65.7767 116.818 65.7999C117.772 65.7767 118.721 65.9489 119.605 66.3058C120.49 66.6627 121.293 67.1968 121.963 67.8751C122.634 68.5534 123.158 69.3616 123.504 70.25C123.85 71.1383 124.01 72.088 123.974 73.0406C124.009 73.9922 123.847 74.9408 123.501 75.8279C123.154 76.7151 122.63 77.522 121.959 78.1992C121.289 78.8764 120.488 79.4096 119.603 79.7658C118.719 80.1221 117.771 80.294 116.818 80.2709ZM155.053 59.8364L148.722 77.5312L142.298 59.8364H134.698L145.412 86.2343H151.98L162.395 59.8364H155.043H155.053ZM186.709 59.8364L185.977 62.3289C183.585 60.2276 180.501 59.08 177.316 59.1052C169.428 59.1052 163.54 65.0686 163.54 73.0406C163.54 81.0022 169.428 87.0171 177.316 87.0171C180.667 87.0171 183.595 85.843 185.833 83.8345L186.462 86.2343H192.01V59.8364H186.709ZM177.893 80.2709C176.941 80.291 175.994 80.1171 175.112 79.7597C174.229 79.4024 173.429 78.8692 172.759 78.1926C172.089 77.516 171.564 76.7102 171.217 75.8245C170.869 74.9387 170.706 73.9914 170.737 73.0406C170.702 72.088 170.862 71.1383 171.208 70.25C171.554 69.3616 172.078 68.5534 172.748 67.8751C173.418 67.1968 174.221 66.6627 175.106 66.3058C175.991 65.9489 176.939 65.7767 177.893 65.7999C178.847 65.7767 179.796 65.9489 180.681 66.3058C181.566 66.6627 182.368 67.1968 183.038 67.8751C183.708 68.5534 184.233 69.3616 184.579 70.25C184.925 71.1383 185.085 72.088 185.049 73.0406C185.083 73.9922 184.922 74.9408 184.575 75.8279C184.229 76.7151 183.705 77.522 183.034 78.1992C182.364 78.8764 181.562 79.4096 180.678 79.7658C179.794 80.1221 178.846 80.294 177.893 80.2709ZM198.897 56.3139H205.951V49.7222H198.897V56.3139ZM198.897 86.2343H206.002V59.8364H198.887V86.2446L198.897 86.2343ZM222.119 87.0171C228.791 87.0171 233.163 83.4946 233.163 78.1182C233.163 71.6707 227.667 70.7849 223.387 70.0022C220.655 69.5181 218.417 69.0752 218.417 67.3242C218.417 65.7999 219.737 64.8214 221.923 64.8214C224.398 64.8214 225.862 65.8514 225.914 67.9525H232.678C232.626 62.6688 228.45 59.1052 222.119 59.1052C215.788 59.1052 211.56 62.5761 211.56 67.5611C211.56 73.7718 216.912 74.8945 221.098 75.6257C223.872 76.0686 226.151 76.6042 226.151 78.4067C226.151 80.1782 224.357 81.1051 222.408 81.1051C219.881 81.1051 218.077 79.931 218.025 77.5826H211.116C211.116 83.2063 215.551 87.0171 222.119 87.0171ZM251.001 79.8795C248.372 79.8795 246.918 78.4169 246.918 75.8626V65.6042H254.075V59.8364H246.815V52.9974H245.454L235.091 64.0386V65.6042H239.813V76.8514C239.813 82.6707 243.361 86.2343 249.156 86.2343H254.208V79.8795H251.012H251.001ZM259.065 56.3139H266.128V49.7222H259.065V56.3139ZM259.065 86.2343H266.18V59.8364H259.065V86.2446V86.2343ZM285.215 87.0171C292.072 87.0171 297.475 82.5162 298.692 75.8729H291.536C290.319 78.7053 288.082 80.2709 285.215 80.2709C281.41 80.2709 278.451 77.0986 278.451 73.0406C278.451 68.9207 281.369 65.7999 285.215 65.7999C286.564 65.7821 287.888 66.1691 289.015 66.9109C290.142 67.6528 291.02 68.7152 291.536 69.961H298.599C297.331 63.4516 292.072 59.1052 285.256 59.1052C277.275 59.1052 271.232 65.0686 271.232 72.989C271.232 80.9095 277.275 87.0171 285.215 87.0171Z"
        fill="white" />
    <path
        d="M40.6019 33.1251L68.5969 49.2708C69.8728 50.0076 70.9321 51.0663 71.6691 52.3408C72.4055 53.6154 72.7942 55.0609 72.7959 56.5327V88.824C72.7959 91.8198 71.2033 94.5987 68.5969 96.096L40.6019 112.242C39.3237 112.979 37.8738 113.367 36.3979 113.367C34.922 113.367 33.4722 112.979 32.194 112.242L4.19876 96.096C2.92166 95.3586 1.86138 94.2981 1.1244 93.0217C0.3874 91.7452 -0.000382267 90.2978 2.82767e-07 88.824V56.5327C2.82767e-07 53.5371 1.60299 50.7686 4.19876 49.2708L32.194 33.1251C33.4722 32.388 34.922 32 36.3979 32C37.8738 32 39.3237 32.388 40.6019 33.1251ZM53.6842 57.4728L39.9917 49.591C38.716 48.8577 37.2699 48.4718 35.7981 48.4718C34.3263 48.4718 32.8802 48.8577 31.6045 49.591L17.912 57.4728C16.633 58.2091 15.5706 59.2689 14.8317 60.5455C14.0928 61.822 13.7035 63.2705 13.7029 64.745V80.4775C13.7029 83.4731 15.3058 86.2622 17.912 87.7497L31.6045 95.6317C32.8802 96.3647 34.3263 96.7505 35.7981 96.7505C37.2699 96.7505 38.716 96.3647 39.9917 95.6317L53.6842 87.7497C54.9635 87.0133 56.0256 85.9535 56.7643 84.677C57.5035 83.4004 57.8928 81.952 57.8933 80.4775V64.745C57.8933 61.7493 56.2799 58.9603 53.6842 57.4728Z"
        fill="#3884FF" />
    <path fill-rule="evenodd" clip-rule="evenodd"
        d="M39.5832 60.7579C40.1304 60.8671 40.6118 61.1892 40.9216 61.6533C41.2314 62.1174 41.3442 62.6855 41.2352 63.2327L37.0263 84.277C36.9102 84.8176 36.586 85.2908 36.1238 85.5943C35.6616 85.8977 35.0985 86.0071 34.5563 85.8987C34.0141 85.7903 33.5363 85.4729 33.2263 85.0151C32.9163 84.5572 32.7989 83.9958 32.8995 83.4521L37.1084 62.4078C37.2181 61.861 37.5404 61.3801 38.0044 61.0707C38.4684 60.7614 39.0363 60.6489 39.5832 60.7579Z"
        fill="white" />
    <path fill-rule="evenodd" clip-rule="evenodd"
        d="M43.9965 67.6459C44.3912 67.2514 44.9263 67.0298 45.4843 67.0298C46.0424 67.0298 46.5775 67.2514 46.9722 67.6459L51.181 71.8548C51.5756 72.2494 51.7972 72.7846 51.7972 73.3426C51.7972 73.9006 51.5756 74.4358 51.181 74.8305L46.9722 79.0393C46.5753 79.4227 46.0437 79.6348 45.4919 79.63C44.9401 79.6252 44.4123 79.4039 44.0222 79.0137C43.632 78.6235 43.4107 78.0957 43.4059 77.5439C43.4011 76.9921 43.6132 76.4606 43.9965 76.0637L46.7175 73.3426L43.9965 70.6216C43.602 70.227 43.3804 69.6918 43.3804 69.1338C43.3804 68.5757 43.602 68.0406 43.9965 67.6459V67.6459ZM30.1367 67.6459C30.5313 68.0406 30.7529 68.5757 30.7529 69.1338C30.7529 69.6918 30.5313 70.227 30.1367 70.6216L27.4157 73.3426L30.1367 76.0637C30.3377 76.2578 30.4981 76.49 30.6083 76.7467C30.7186 77.0035 30.7767 77.2796 30.7791 77.5591C30.7815 77.8385 30.7283 78.1156 30.6225 78.3742C30.5167 78.6329 30.3604 78.8678 30.1628 79.0654C29.9652 79.263 29.7303 79.4193 29.4716 79.5251C29.213 79.6309 28.9359 79.6841 28.6565 79.6817C28.3771 79.6793 28.1009 79.6212 27.8442 79.5109C27.5874 79.4006 27.3552 79.2403 27.1611 79.0393L22.9522 74.8305C22.5577 74.4358 22.3361 73.9006 22.3361 73.3426C22.3361 72.7846 22.5577 72.2494 22.9522 71.8548L27.1611 67.6459C27.5557 67.2514 28.0909 67.0298 28.6489 67.0298C29.2069 67.0298 29.7421 67.2514 30.1367 67.6459V67.6459Z"
        fill="white" />
    <path
        d="M327.866 59.2358C323.496 59.2358 320.179 60.9733 317.916 64.4481V59.9203H313.335V96.7747H317.916V81.717C320.179 85.1919 323.496 86.9293 327.866 86.9293C331.552 86.9293 334.658 85.6131 337.29 82.928C339.87 80.2429 341.186 76.9786 341.186 73.0826C341.186 69.2392 339.87 65.9749 337.29 63.2898C334.658 60.6047 331.552 59.2358 327.866 59.2358ZM327.287 82.5068C324.602 82.5068 322.391 81.6117 320.601 79.8217C318.811 78.0316 317.916 75.7677 317.916 73.0826C317.916 70.4501 318.811 68.1862 320.601 66.3961C322.391 64.6061 324.602 63.6584 327.287 63.6584C329.92 63.6584 332.131 64.6061 333.921 66.3961C335.711 68.1862 336.606 70.4501 336.606 73.0826C336.606 75.7677 335.711 78.0316 333.921 79.8217C332.131 81.6117 329.92 82.5068 327.287 82.5068Z"
        fill="url(#paint0_linear_917_129)" />
    <path
        d="M351.233 64.3428V59.9203H346.652V86.2449H351.233V72.2928C351.233 69.4498 352.022 67.3438 353.654 66.0276C355.234 64.764 357.182 64.1322 359.446 64.2375V59.4464C355.445 59.4464 352.707 61.0786 351.233 64.3428Z"
        fill="url(#paint1_linear_917_129)" />
    <path
        d="M374.861 86.9293C378.704 86.9293 381.968 85.6131 384.706 82.928C387.391 80.2955 388.76 76.9786 388.76 73.0826C388.76 69.1865 387.391 65.9223 384.706 63.2372C381.968 60.6047 378.704 59.2358 374.861 59.2358C370.965 59.2358 367.7 60.6047 365.015 63.2372C362.33 65.9223 361.014 69.1865 361.014 73.0826C361.014 76.9786 362.33 80.2955 365.015 82.928C367.7 85.6131 370.965 86.9293 374.861 86.9293ZM374.861 82.4541C372.228 82.4541 370.069 81.5591 368.279 79.769C366.489 77.9789 365.594 75.7677 365.594 73.0826C365.594 70.4501 366.489 68.1862 368.279 66.3961C370.069 64.6061 372.228 63.711 374.861 63.711C377.493 63.711 379.704 64.6061 381.494 66.3961C383.284 68.1862 384.179 70.4501 384.179 73.0826C384.179 75.7677 383.284 77.9789 381.494 79.769C379.704 81.5591 377.493 82.4541 374.861 82.4541Z"
        fill="url(#paint2_linear_917_129)" />
    <path
        d="M416.009 59.9203V64.4481C413.693 60.9733 410.428 59.2358 406.111 59.2358C402.32 59.2358 399.161 60.6047 396.582 63.2372C393.949 65.8696 392.686 69.1339 392.686 72.9246C392.686 76.768 393.949 80.0323 396.582 82.6647C399.161 85.3498 402.32 86.6661 406.111 86.6661C410.376 86.6661 413.693 84.9286 416.009 81.4011V85.1392C416.009 87.6664 415.219 89.6144 413.64 91.0359C412.06 92.5101 409.955 93.1945 407.217 93.1945C402.9 93.1945 400.056 91.7204 398.635 88.772L394.634 91.0359C395.687 93.1419 397.319 94.7214 399.477 95.827C401.583 96.9326 404.163 97.4591 407.111 97.4591C410.797 97.4591 413.956 96.4062 416.588 94.2475C419.221 92.0889 420.537 89.0353 420.537 85.1392V59.9203H416.009ZM406.638 82.2962C403.953 82.2962 401.741 81.4011 399.951 79.6111C398.161 77.821 397.266 75.6097 397.266 72.9246C397.266 70.2922 398.161 68.0809 399.951 66.2908C401.741 64.5008 403.953 63.6057 406.638 63.6057C409.27 63.6057 411.534 64.5008 413.324 66.2908C415.114 68.0809 416.009 70.2922 416.009 72.9246C416.009 75.6097 415.114 77.821 413.324 79.6111C411.534 81.4011 409.27 82.2962 406.638 82.2962Z"
        fill="url(#paint3_linear_917_129)" />
    <path
        d="M432.057 64.3428V59.9203H427.477V86.2449H432.057V72.2928C432.057 69.4498 432.847 67.3438 434.479 66.0276C436.059 64.764 438.007 64.1322 440.271 64.2375V59.4464C436.269 59.4464 433.531 61.0786 432.057 64.3428Z"
        fill="url(#paint4_linear_917_129)" />
    <path
        d="M465.109 59.9203V64.4481C462.793 60.9733 459.476 59.2358 455.159 59.2358C451.473 59.2358 448.314 60.6047 445.735 63.2898C443.102 65.9749 441.839 69.2392 441.839 73.0826C441.839 76.9786 443.102 80.2429 445.735 82.928C448.314 85.6131 451.473 86.9293 455.159 86.9293C459.476 86.9293 462.793 85.1919 465.109 81.717V86.2449H469.69V59.9203H465.109ZM455.738 82.5068C453.105 82.5068 450.894 81.6117 449.104 79.8217C447.314 78.0316 446.419 75.7677 446.419 73.0826C446.419 70.4501 447.314 68.1862 449.104 66.3961C450.894 64.6061 453.105 63.6584 455.738 63.6584C458.37 63.6584 460.634 64.6061 462.424 66.3961C464.214 68.1862 465.109 70.4501 465.109 73.0826C465.109 75.7677 464.214 78.0316 462.424 79.8217C460.634 81.6117 458.37 82.5068 455.738 82.5068Z"
        fill="url(#paint5_linear_917_129)" />
    <path
        d="M505.06 59.2358C501.375 59.2358 498.584 60.7627 496.794 63.711C495.162 60.7627 492.582 59.2358 489.055 59.2358C485.58 59.2358 483 60.6574 481.21 63.4478V59.9203H476.63V86.2449H481.21V71.6084C481.21 68.9759 481.842 66.9753 483.106 65.6064C484.369 64.2902 486.001 63.6057 487.949 63.6057C489.634 63.6057 491.003 64.1849 492.003 65.2905C493.004 66.4488 493.53 68.0282 493.53 70.0289V86.2449H498.111V71.6084C498.111 68.9233 498.69 66.9226 499.848 65.6064C501.006 64.2902 502.586 63.6057 504.586 63.6057C506.324 63.6057 507.745 64.1849 508.798 65.2905C509.851 66.4488 510.378 68.0282 510.378 70.0289V86.2449H514.958V69.871C514.958 66.6067 514.011 64.0269 512.221 62.1315C510.378 60.2362 508.009 59.2358 505.06 59.2358Z"
        fill="url(#paint6_linear_917_129)" />
    <path
        d="M525.258 67.0279C525.258 65.9223 525.679 65.0799 526.627 64.4481C527.522 63.8163 528.628 63.5004 529.944 63.5004C532.734 63.5004 534.63 64.6587 535.577 66.87L539.421 64.7114C538.578 63.0266 537.315 61.6577 535.63 60.71C533.945 59.7623 532.05 59.2358 529.944 59.2358C527.259 59.2358 525.048 59.9729 523.258 61.4471C521.467 62.9213 520.625 64.8167 520.625 67.0806C520.625 68.8706 521.099 70.2922 522.152 71.3978C523.152 72.5561 524.363 73.3458 525.837 73.8197C527.259 74.3461 528.68 74.7673 530.155 75.1359C531.576 75.5044 532.787 75.9783 533.84 76.6101C534.84 77.2419 535.367 78.0316 535.367 79.0319C535.367 80.2955 534.84 81.1905 533.893 81.7697C532.892 82.3488 531.629 82.6121 530.155 82.6121C528.523 82.6121 527.154 82.2435 525.995 81.5064C524.837 80.7693 524.047 79.769 523.626 78.5054L519.677 80.7693C520.415 82.6647 521.731 84.1389 523.573 85.2445C525.364 86.4028 527.575 86.9293 530.155 86.9293C532.998 86.9293 535.367 86.2449 537.21 84.7707C539.052 83.3492 540 81.4538 540 79.0319C540 77.2419 539.474 75.8203 538.473 74.662C537.42 73.5038 536.209 72.714 534.788 72.2402C533.314 71.7663 531.892 71.3451 530.471 70.9766C528.996 70.6081 527.785 70.1342 526.785 69.5024C525.732 68.8706 525.258 68.0809 525.258 67.0279Z"
        fill="url(#paint7_linear_917_129)" />
    <defs>
        <linearGradient id="paint0_linear_917_129" x1="313.335" y1="59.2358" x2="325.87" y2="133.569"
            gradientUnits="userSpaceOnUse">
            <stop stop-color="#EC4899" />
            <stop offset="1" stop-color="#F43F5E" />
            <stop offset="1" stop-color="#F43F5E" />
        </linearGradient>
        <linearGradient id="paint1_linear_917_129" x1="313.335" y1="59.2358" x2="325.87" y2="133.569"
            gradientUnits="userSpaceOnUse">
            <stop stop-color="#EC4899" />
            <stop offset="1" stop-color="#F43F5E" />
            <stop offset="1" stop-color="#F43F5E" />
        </linearGradient>
        <linearGradient id="paint2_linear_917_129" x1="313.335" y1="59.2358" x2="325.87" y2="133.569"
            gradientUnits="userSpaceOnUse">
            <stop stop-color="#EC4899" />
            <stop offset="1" stop-color="#F43F5E" />
            <stop offset="1" stop-color="#F43F5E" />
        </linearGradient>
        <linearGradient id="paint3_linear_917_129" x1="313.335" y1="59.2358" x2="325.87" y2="133.569"
            gradientUnits="userSpaceOnUse">
            <stop stop-color="#EC4899" />
            <stop offset="1" stop-color="#F43F5E" />
            <stop offset="1" stop-color="#F43F5E" />
        </linearGradient>
        <linearGradient id="paint4_linear_917_129" x1="313.335" y1="59.2358" x2="325.87" y2="133.569"
            gradientUnits="userSpaceOnUse">
            <stop stop-color="#EC4899" />
            <stop offset="1" stop-color="#F43F5E" />
            <stop offset="1" stop-color="#F43F5E" />
        </linearGradient>
        <linearGradient id="paint5_linear_917_129" x1="313.335" y1="59.2358" x2="325.87" y2="133.569"
            gradientUnits="userSpaceOnUse">
            <stop stop-color="#EC4899" />
            <stop offset="1" stop-color="#F43F5E" />
            <stop offset="1" stop-color="#F43F5E" />
        </linearGradient>
        <linearGradient id="paint6_linear_917_129" x1="313.335" y1="59.2358" x2="325.87" y2="133.569"
            gradientUnits="userSpaceOnUse">
            <stop stop-color="#EC4899" />
            <stop offset="1" stop-color="#F43F5E" />
            <stop offset="1" stop-color="#F43F5E" />
        </linearGradient>
        <linearGradient id="paint7_linear_917_129" x1="313.335" y1="59.2358" x2="325.87" y2="133.569"
            gradientUnits="userSpaceOnUse">
            <stop stop-color="#EC4899" />
            <stop offset="1" stop-color="#F43F5E" />
            <stop offset="1" stop-color="#F43F5E" />
        </linearGradient>
    </defs>
</svg>