<svg width="540" height="146" fill="none" xmlns="http://www.w3.org/2000/svg"><path d="M114.582 51.45h9.029v-8.365h-9.029v8.365zm-7.838 50.057h4.319c7.353 0 12.548-5.202 12.548-12.52V55.92h-9.029v32.387c0 3.215-1.727 4.888-4.933 4.888h-2.917v8.312h.012zm52.68-45.587l-.929 3.163a16.46 16.46 0 00-10.992-4.091c-10.01 0-17.481 7.567-17.481 17.683 0 10.103 7.458 17.736 17.481 17.736 4.253 0 7.956-1.49 10.808-4.039l.798 3.045h7.04V55.92h-6.725zm-11.188 25.93a8.911 8.911 0 01-6.515-2.637 8.884 8.884 0 01-2.566-6.538 8.85 8.85 0 012.552-6.554 8.876 8.876 0 016.529-2.634 8.878 8.878 0 018.484 5.647 8.867 8.867 0 01.597 3.541 8.85 8.85 0 01-2.557 6.546 8.866 8.866 0 01-6.524 2.63zm48.518-25.93l-8.034 22.454-8.151-22.454h-9.644l13.595 33.497h8.335L206.07 55.92h-9.329.013zm40.17 0l-.929 3.163a16.459 16.459 0 00-10.991-4.091c-10.01 0-17.481 7.567-17.481 17.683 0 10.103 7.471 17.736 17.481 17.736 4.253 0 7.969-1.49 10.808-4.039l.799 3.045h7.039V55.92h-6.726zm-11.187 25.93a8.908 8.908 0 01-6.516-2.637 8.896 8.896 0 01-2.565-6.538 8.85 8.85 0 012.552-6.554 8.876 8.876 0 016.529-2.634 8.878 8.878 0 018.484 5.647 8.849 8.849 0 01.596 3.541 8.854 8.854 0 01-5.546 8.534 8.883 8.883 0 01-3.534.641zm26.653-30.4h8.951v-8.365h-8.951v8.365zm0 37.967h9.016V55.92h-9.029v33.51l.013-.013zm29.467.994c8.466 0 14.014-4.47 14.014-11.293 0-8.181-6.974-9.305-12.404-10.298-3.468-.615-6.308-1.177-6.308-3.398 0-1.935 1.676-3.176 4.449-3.176 3.141 0 4.999 1.307 5.065 3.973h8.583c-.065-6.705-5.365-11.227-13.399-11.227-8.033 0-13.398 4.404-13.398 10.73 0 7.881 6.79 9.306 12.103 10.234 3.52.562 6.411 1.241 6.411 3.528 0 2.249-2.276 3.425-4.749 3.425-3.206 0-5.496-1.49-5.561-4.47h-8.768c0 7.136 5.627 11.972 13.962 11.972zm36.65-9.058c-3.336 0-5.181-1.855-5.181-5.097V63.24h9.081v-7.32h-9.212v-8.677h-1.727l-13.15 14.01v1.987h5.992V77.51c0 7.384 4.502 11.906 11.856 11.906h6.411v-8.064h-4.07zM328.74 51.45h8.963v-8.365h-8.963v8.365zm0 37.967h9.028V55.92h-9.028v33.51-.013zm33.182.994c8.702 0 15.558-5.712 17.103-14.142h-9.082c-1.544 3.594-4.383 5.581-8.021 5.581-4.828 0-8.583-4.025-8.583-9.175 0-5.228 3.703-9.188 8.583-9.188a8.562 8.562 0 018.021 5.28h8.964c-1.61-8.26-8.283-13.775-16.932-13.775-10.128 0-17.795 7.567-17.795 17.618 0 10.05 7.667 17.8 17.742 17.8z" fill="#fff"/><path d="M51.522 22.024l35.524 20.488a10.66 10.66 0 015.328 9.215v40.976c0 3.802-2.02 7.328-5.328 9.228l-35.524 20.488a10.682 10.682 0 01-10.67 0L5.328 101.931A10.662 10.662 0 010 92.703V51.727c0-3.8 2.034-7.314 5.328-9.215l35.524-20.488a10.679 10.679 0 0110.67 0zm16.6 30.896L50.747 42.92a10.68 10.68 0 00-10.643 0L22.73 52.92a10.663 10.663 0 00-5.34 9.228v19.964c0 3.801 2.033 7.34 5.34 9.228l17.375 10.002a10.684 10.684 0 0010.643 0L68.122 91.34a10.658 10.658 0 005.342-9.228V62.148c0-3.801-2.048-7.34-5.342-9.228z" fill="#3884FF"/><path d="M45.298 62.884c1.675-1.113 3.95-1.797 6.454-1.797 2.505 0 4.778.684 6.453 1.797v18.642c-1.675-1.113-3.948-1.797-6.453-1.797-2.504 0-4.779.684-6.454 1.797m0-18.642v18.642-18.642zm0 0c-1.675-1.113-3.949-1.797-6.453-1.797-2.503 0-4.778.684-6.453 1.797v18.642c1.675-1.113 3.95-1.797 6.453-1.797 2.504 0 4.779.684 6.453 1.797V62.884z" stroke="#fff" stroke-width="4.859" stroke-linecap="round" stroke-linejoin="round"/><path d="M425.264 42.665v19.107c-2.939-4.41-7.148-6.614-12.627-6.614-4.676 0-8.685 1.737-11.958 5.144-3.341 3.407-4.944 7.55-4.944 12.427 0 4.944 1.603 9.086 4.944 12.493 3.273 3.407 7.282 5.077 11.958 5.077 5.479 0 9.688-2.204 12.627-6.614v5.746h5.813V42.665h-5.813zm-11.892 42.022c-3.34 0-6.146-1.135-8.418-3.407-2.271-2.271-3.407-5.144-3.407-8.551 0-3.34 1.136-6.214 3.407-8.485 2.272-2.272 5.078-3.474 8.418-3.474 3.341 0 6.214 1.202 8.485 3.474 2.272 2.271 3.407 5.144 3.407 8.485 0 3.407-1.135 6.28-3.407 8.551-2.271 2.272-5.144 3.407-8.485 3.407z" fill="url(#prefix__paint0_linear_917_108)"/><path d="M455.583 90.3c4.877 0 9.019-1.67 12.493-5.078 3.408-3.34 5.145-7.55 5.145-12.493 0-4.944-1.737-9.086-5.145-12.494-3.474-3.34-7.616-5.077-12.493-5.077-4.944 0-9.086 1.737-12.493 5.077-3.407 3.408-5.078 7.55-5.078 12.494s1.671 9.152 5.078 12.493c3.407 3.407 7.549 5.077 12.493 5.077zm0-5.68c-3.34 0-6.08-1.135-8.351-3.407-2.272-2.271-3.407-5.077-3.407-8.484 0-3.34 1.135-6.214 3.407-8.485 2.271-2.272 5.011-3.407 8.351-3.407 3.341 0 6.146 1.135 8.418 3.407 2.271 2.271 3.407 5.144 3.407 8.485 0 3.407-1.136 6.213-3.407 8.484-2.272 2.272-5.077 3.408-8.418 3.408z" fill="url(#prefix__paint1_linear_917_108)"/><path d="M495.773 90.3c3.207 0 6.213-.736 8.885-2.339 2.673-1.603 4.677-3.674 6.147-6.347l-4.944-2.873c-.935 1.804-2.338 3.207-4.075 4.276-1.804 1.07-3.808 1.537-6.013 1.537-3.341 0-6.147-1.136-8.418-3.407-2.272-2.272-3.341-5.078-3.341-8.418 0-3.34 1.069-6.214 3.341-8.485 2.271-2.272 5.077-3.407 8.418-3.407 2.205 0 4.209.534 5.946 1.603a10.537 10.537 0 013.942 4.276l4.877-2.806c-1.337-2.673-3.274-4.744-5.88-6.347-2.672-1.604-5.612-2.405-8.885-2.405-5.078 0-9.22 1.737-12.56 5.077-3.341 3.34-5.011 7.55-5.011 12.494 0 5.01 1.67 9.22 5.011 12.56 3.34 3.34 7.482 5.01 12.56 5.01z" fill="url(#prefix__paint2_linear_917_108)"/><path d="M521.293 65.046c0-1.403.535-2.472 1.737-3.274 1.136-.802 2.539-1.203 4.209-1.203 3.541 0 5.946 1.47 7.149 4.276l4.877-2.739c-1.069-2.138-2.672-3.875-4.81-5.078-2.138-1.202-4.543-1.87-7.216-1.87-3.407 0-6.213.935-8.484 2.806-2.272 1.87-3.341 4.276-3.341 7.148 0 2.272.601 4.076 1.938 5.479 1.269 1.47 2.806 2.472 4.676 3.073a51.791 51.791 0 005.479 1.67c1.803.468 3.34 1.07 4.676 1.87 1.27.803 1.938 1.805 1.938 3.074 0 1.603-.668 2.74-1.871 3.474-1.269.735-2.873 1.069-4.743 1.069-2.071 0-3.809-.468-5.278-1.403-1.47-.935-2.472-2.205-3.007-3.808l-5.01 2.873c.935 2.405 2.605 4.275 4.943 5.678 2.272 1.47 5.078 2.138 8.352 2.138 3.607 0 6.614-.868 8.952-2.739 2.338-1.804 3.541-4.209 3.541-7.282 0-2.272-.668-4.075-1.938-5.545-1.336-1.47-2.872-2.472-4.676-3.073a99.302 99.302 0 00-5.479-1.604c-1.87-.467-3.407-1.069-4.676-1.87-1.336-.802-1.938-1.804-1.938-3.14z" fill="url(#prefix__paint3_linear_917_108)"/><defs><linearGradient id="prefix__paint0_linear_917_108" x1="395.735" y1="42.665" x2="424.099" y2="128.568" gradientUnits="userSpaceOnUse"><stop stop-color="#A855F7"/><stop offset="1" stop-color="#6366F1"/></linearGradient><linearGradient id="prefix__paint1_linear_917_108" x1="395.735" y1="42.665" x2="424.099" y2="128.568" gradientUnits="userSpaceOnUse"><stop stop-color="#A855F7"/><stop offset="1" stop-color="#6366F1"/></linearGradient><linearGradient id="prefix__paint2_linear_917_108" x1="395.735" y1="42.665" x2="424.099" y2="128.568" gradientUnits="userSpaceOnUse"><stop stop-color="#A855F7"/><stop offset="1" stop-color="#6366F1"/></linearGradient><linearGradient id="prefix__paint3_linear_917_108" x1="395.735" y1="42.665" x2="424.099" y2="128.568" gradientUnits="userSpaceOnUse"><stop stop-color="#A855F7"/><stop offset="1" stop-color="#6366F1"/></linearGradient></defs></svg>