<svg width="543" height="146" viewBox="0 0 543 146" fill="none" xmlns="http://www.w3.org/2000/svg">
    <g clip-path="url(#clip0)">
        <path
            d="M167.761 43.3574H180.408V31.6035H167.761V43.3574ZM156.782 113.697H162.831C173.132 113.697 180.408 106.388 180.408 96.1031V49.6384H167.761V95.1481C167.761 99.666 165.342 102.017 160.851 102.017H156.764V113.697H156.782ZM230.575 49.6384L229.274 54.0829C225.021 50.3359 219.54 48.2896 213.877 48.3345C199.855 48.3345 189.389 58.9681 189.389 73.183C189.389 87.3795 199.837 98.1049 213.877 98.1049C219.834 98.1049 225.021 96.0113 229.017 92.43L230.135 96.7091H239.996V49.6384H230.575ZM214.904 86.0755C213.211 86.1114 211.529 85.8013 209.959 85.1641C208.39 84.527 206.967 83.5762 205.777 82.3698C204.586 81.1633 203.654 79.7265 203.036 78.1471C202.418 76.5676 202.128 74.8785 202.183 73.183C202.12 71.4845 202.405 69.7911 203.02 68.2071C203.634 66.623 204.566 65.1818 205.758 63.9723C206.95 62.7628 208.376 61.8105 209.949 61.1741C211.522 60.5377 213.208 60.2307 214.904 60.272C216.599 60.2307 218.286 60.5377 219.858 61.1741C221.431 61.8105 222.858 62.7628 224.049 63.9723C225.241 65.1818 226.173 66.623 226.788 68.2071C227.402 69.7911 227.687 71.4845 227.624 73.183C227.685 74.8799 227.398 76.5713 226.782 78.1532C226.166 79.7351 225.234 81.174 224.042 82.3815C222.851 83.5891 221.426 84.5397 219.854 85.175C218.282 85.8102 216.598 86.1167 214.904 86.0755ZM282.868 49.6384L271.614 81.1903L260.195 49.6384H246.686L265.73 96.7091H277.406L295.918 49.6384H282.85H282.868ZM339.138 49.6384L337.837 54.0829C333.584 50.3359 328.103 48.2896 322.441 48.3345C308.419 48.3345 297.953 58.9681 297.953 73.183C297.953 87.3795 308.419 98.1049 322.441 98.1049C328.398 98.1049 333.603 96.0113 337.58 92.43L338.699 96.7091H348.56V49.6384H339.138ZM323.467 86.0755C321.774 86.1114 320.092 85.8013 318.523 85.1641C316.954 84.527 315.531 83.5762 314.34 82.3698C313.15 81.1633 312.217 79.7265 311.599 78.1471C310.982 76.5676 310.691 74.8785 310.747 73.183C310.684 71.4845 310.968 69.7911 311.583 68.2071C312.198 66.623 313.13 65.1818 314.321 63.9723C315.513 62.7628 316.939 61.8105 318.512 61.1741C320.085 60.5377 321.771 60.2307 323.467 60.272C325.163 60.2307 326.849 60.5377 328.422 61.1741C329.995 61.8105 331.421 62.7628 332.613 63.9723C333.804 65.1818 334.736 66.623 335.351 68.2071C335.966 69.7911 336.25 71.4845 336.187 73.183C336.248 74.8799 335.961 76.5713 335.345 78.1532C334.729 79.7351 333.797 81.174 332.606 82.3815C331.414 83.5891 329.989 84.5397 328.417 85.175C326.846 85.8102 325.161 86.1167 323.467 86.0755ZM360.803 43.3574H373.341V31.6035H360.803V43.3574ZM360.803 96.7091H373.432V49.6384H360.785V96.7275L360.803 96.7091ZM402.081 98.1049C413.94 98.1049 421.711 91.8239 421.711 82.2371C421.711 70.7404 411.942 69.1609 404.335 67.7652C399.478 66.902 395.5 66.1123 395.5 62.9901C395.5 60.272 397.847 58.5273 401.732 58.5273C406.131 58.5273 408.734 60.3639 408.826 64.1104H420.85C420.758 54.6889 413.335 48.3345 402.081 48.3345C390.827 48.3345 383.312 54.5236 383.312 63.4125C383.312 74.4869 392.824 76.4888 400.266 77.7927C405.197 78.5824 409.247 79.5374 409.247 82.7514C409.247 85.9102 406.058 87.5631 402.594 87.5631C398.103 87.5631 394.896 85.4695 394.804 81.2821H382.523C382.523 91.3097 390.405 98.1049 402.081 98.1049ZM453.42 85.3776C448.747 85.3776 446.162 82.7697 446.162 78.2151V59.9231H458.883V49.6384H445.979V37.4437H443.559L425.139 57.1315V59.9231H433.533V79.9782C433.533 90.3547 439.839 96.7091 450.14 96.7091H459.121V85.3776H453.439H453.42ZM467.754 43.3574H480.309V31.6035H467.754V43.3574ZM467.754 96.7091H480.401V49.6384H467.754V96.7275V96.7091ZM514.236 98.1049C526.425 98.1049 536.03 90.0792 538.193 78.2335H525.472C523.309 83.284 519.332 86.0755 514.236 86.0755C507.473 86.0755 502.213 80.419 502.213 73.183C502.213 65.8368 507.4 60.272 514.236 60.272C516.635 60.2403 518.988 60.9304 520.991 62.2531C522.995 63.5759 524.555 65.4704 525.472 67.6917H538.028C535.773 56.0847 526.425 48.3345 514.31 48.3345C500.123 48.3345 489.382 58.9681 489.382 73.0911C489.382 87.2142 500.123 98.1049 514.236 98.1049Z"
            fill="black" />
        <path
            d="M79.4256 2.00627L129.188 30.7959C131.456 32.1097 133.339 33.9975 134.649 36.2701C135.958 38.5428 136.649 41.1204 136.652 43.7448V101.324C136.652 106.666 133.821 111.621 129.188 114.291L79.4256 143.081C77.1536 144.395 74.5763 145.087 71.9529 145.087C69.3294 145.087 66.7522 144.395 64.4802 143.081L14.7174 114.291C12.4473 112.976 10.5626 111.085 9.25259 108.809C7.94253 106.533 7.25323 103.952 7.25391 101.324V43.7448C7.25391 38.4032 10.1033 33.4667 14.7174 30.7959L64.4802 2.00627C66.7522 0.69194 69.3294 0 71.9529 0C74.5763 0 77.1536 0.69194 79.4256 2.00627ZM102.68 45.421L78.341 31.3669C76.0733 30.0594 73.5029 29.3713 70.8867 29.3713C68.2704 29.3713 65.7 30.0594 63.4323 31.3669L39.0933 45.421C36.8198 46.734 34.9314 48.6237 33.618 50.9C32.3046 53.1763 31.6126 55.759 31.6114 58.3883V86.4412C31.6114 91.7828 34.4607 96.7561 39.0933 99.4085L63.4323 113.463C65.7 114.77 68.2704 115.458 70.8867 115.458C73.5029 115.458 76.0733 114.77 78.341 113.463L102.68 99.4085C104.954 98.0954 106.842 96.2057 108.155 93.9294C109.469 91.6531 110.161 89.0705 110.162 86.4412V58.3883C110.162 53.0466 107.294 48.0734 102.68 45.421Z"
            fill="#3884FF" />
        <circle cx="72.4471" cy="72.3973" r="19.0897" fill="black" />
    </g>
    <defs>
        <clipPath id="clip0">
            <rect width="543" height="145.087" fill="white" />
        </clipPath>
    </defs>
</svg>