<svg width="333" height="100" viewBox="0 0 333 100" fill="none" xmlns="http://www.w3.org/2000/svg">
<rect x="3.125" y="3.125" width="93.75" height="93.75" rx="1" fill="white"/>
<path fill-rule="evenodd" clip-rule="evenodd" d="M0 8.82353C0 3.95043 3.95043 0 8.82353 0H91.1765C96.0496 0 100 3.95043 100 8.82353V91.1765C100 96.0496 96.0496 100 91.1765 100H8.82353C3.95043 100 0 96.0496 0 91.1765V8.82353ZM8.82353 5.88235C7.19916 5.88235 5.88235 7.19916 5.88235 8.82353V91.1765C5.88235 92.8008 7.19916 94.1176 8.82353 94.1176H91.1765C92.8008 94.1176 94.1176 92.8008 94.1176 91.1765V8.82353C94.1176 7.19916 92.8008 5.88235 91.1765 5.88235H8.82353Z" fill="black"/>
<path fill-rule="evenodd" clip-rule="evenodd" d="M30.3347 77.1199C29.1143 75.8995 29.1143 73.9208 30.3347 72.7004L78.9483 24.0869C80.1687 22.8665 82.1473 22.8665 83.3677 24.0869C84.5881 25.3072 84.5881 27.2859 83.3677 28.5063L34.7541 77.1199C33.5337 78.3403 31.5551 78.3403 30.3347 77.1199Z" fill="black"/>
<path fill-rule="evenodd" clip-rule="evenodd" d="M14.7097 77.1199C13.4893 75.8995 13.4893 73.9208 14.7097 72.7004L63.3233 24.0869C64.5437 22.8665 66.5223 22.8665 67.7427 24.0869C68.9631 25.3072 68.9631 27.2859 67.7427 28.5063L19.1291 77.1199C17.9087 78.3403 15.9301 78.3403 14.7097 77.1199Z" fill="black"/>
<path d="M145.142 69.42C139.382 69.42 134.576 67.548 130.724 63.804C126.908 60.024 125 55.326 125 49.71C125 44.094 126.908 39.414 130.724 35.67C134.576 31.89 139.382 30 145.142 30C148.922 30 152.342 30.864 155.402 32.592C158.498 34.284 160.91 36.642 162.638 39.666C164.366 42.654 165.23 46.002 165.23 49.71C165.23 55.362 163.322 60.06 159.506 63.804C155.69 67.548 150.902 69.42 145.142 69.42ZM145.142 61.698C147.374 61.698 149.39 61.194 151.19 60.186C152.99 59.142 154.394 57.702 155.402 55.866C156.446 54.03 156.968 51.978 156.968 49.71C156.968 46.29 155.834 43.446 153.566 41.178C151.334 38.874 148.526 37.722 145.142 37.722C141.794 37.722 138.968 38.874 136.664 41.178C134.396 43.446 133.262 46.29 133.262 49.71C133.262 53.13 134.396 55.992 136.664 58.296C138.968 60.564 141.794 61.698 145.142 61.698Z" fill="black"/>
<path d="M188.247 48.846H208.389C208.353 54.822 206.535 59.754 202.935 63.642C199.335 67.494 194.709 69.42 189.057 69.42C183.477 69.42 178.815 67.566 175.071 63.858C171.363 60.114 169.509 55.416 169.509 49.764C169.509 44.076 171.345 39.36 175.017 35.616C178.689 31.872 183.315 30 188.895 30C193.611 30 197.733 31.35 201.261 34.05C204.789 36.714 206.985 40.17 207.849 44.418H199.425C198.885 43.05 198.111 41.88 197.103 40.908C196.095 39.9 194.889 39.126 193.485 38.586C192.117 38.046 190.641 37.776 189.057 37.776C185.709 37.776 182.991 38.892 180.903 41.124C178.815 43.356 177.771 46.236 177.771 49.764C177.771 52.068 178.239 54.12 179.175 55.92C180.111 57.72 181.425 59.124 183.117 60.132C184.845 61.14 186.825 61.644 189.057 61.644C190.677 61.644 192.207 61.374 193.647 60.834C195.087 60.294 196.311 59.538 197.319 58.566C198.363 57.558 199.119 56.424 199.587 55.164H188.247V48.846Z" fill="black"/>
<path d="M214.7 68.61V30.81H222.908V68.61H214.7Z" fill="black"/>
<path d="M254.375 39.396H260.261V68.556H254.051L253.403 65.964C250.739 68.268 247.589 69.42 243.953 69.42C239.561 69.42 235.907 67.962 232.991 65.046C230.111 62.094 228.671 58.404 228.671 53.976C228.671 49.584 230.111 45.93 232.991 43.014C235.907 40.098 239.561 38.64 243.953 38.64C247.661 38.64 250.847 39.828 253.511 42.204L254.375 39.396ZM238.877 59.7C240.389 61.212 242.279 61.968 244.547 61.968C246.851 61.968 248.759 61.212 250.271 59.7C251.783 58.188 252.539 56.28 252.539 53.976C252.539 51.672 251.783 49.764 250.271 48.252C248.759 46.74 246.869 45.984 244.601 45.984C243.089 45.984 241.721 46.344 240.497 47.064C239.309 47.748 238.373 48.702 237.689 49.926C237.005 51.114 236.663 52.464 236.663 53.976C236.663 56.28 237.401 58.188 238.877 59.7Z" fill="black"/>
<path d="M291.658 39.396H297.544V68.556H291.334L290.686 65.964C288.022 68.268 284.872 69.42 281.236 69.42C276.844 69.42 273.19 67.962 270.274 65.046C267.394 62.094 265.954 58.404 265.954 53.976C265.954 49.584 267.394 45.93 270.274 43.014C273.19 40.098 276.844 38.64 281.236 38.64C284.944 38.64 288.13 39.828 290.794 42.204L291.658 39.396ZM276.16 59.7C277.672 61.212 279.562 61.968 281.83 61.968C284.134 61.968 286.042 61.212 287.554 59.7C289.066 58.188 289.822 56.28 289.822 53.976C289.822 51.672 289.066 49.764 287.554 48.252C286.042 46.74 284.152 45.984 281.884 45.984C280.372 45.984 279.004 46.344 277.78 47.064C276.592 47.748 275.656 48.702 274.972 49.926C274.288 51.114 273.946 52.464 273.946 53.976C273.946 56.28 274.684 58.188 276.16 59.7Z" fill="black"/>
<path d="M318.195 69.366C313.803 69.366 310.257 68.214 307.557 65.91C304.893 63.57 303.561 60.384 303.561 56.352H311.823C311.823 57.252 311.985 58.062 312.309 58.782C312.669 59.466 313.137 60.024 313.713 60.456C314.325 60.888 315.009 61.212 315.765 61.428C316.521 61.644 317.313 61.752 318.141 61.752C319.797 61.752 321.219 61.356 322.407 60.564C323.631 59.772 324.243 58.692 324.243 57.324C324.243 56.748 324.099 56.244 323.811 55.812C323.523 55.344 323.181 54.984 322.785 54.732C322.425 54.444 321.849 54.156 321.057 53.868C320.301 53.58 319.653 53.364 319.113 53.22C318.573 53.076 317.763 52.878 316.683 52.626C315.819 52.41 315.171 52.248 314.739 52.14C314.307 52.032 313.659 51.852 312.795 51.6C311.967 51.348 311.319 51.132 310.851 50.952C310.419 50.736 309.843 50.448 309.123 50.088C308.403 49.728 307.845 49.368 307.449 49.008C307.053 48.648 306.603 48.198 306.099 47.658C305.631 47.118 305.271 46.56 305.019 45.984C304.767 45.372 304.551 44.688 304.371 43.932C304.191 43.14 304.101 42.312 304.101 41.448C304.101 37.848 305.325 35.058 307.773 33.078C310.221 31.098 313.569 30.108 317.817 30.108C322.101 30.108 325.431 31.188 327.807 33.348C330.219 35.508 331.425 38.478 331.425 42.258H323.325C323.325 40.71 322.767 39.54 321.651 38.748C320.571 37.92 319.221 37.506 317.601 37.506C316.161 37.506 314.901 37.812 313.821 38.424C312.777 39.036 312.255 39.918 312.255 41.07C312.255 41.61 312.381 42.096 312.633 42.528C312.921 42.924 313.245 43.266 313.605 43.554C313.965 43.806 314.523 44.076 315.279 44.364C316.035 44.616 316.665 44.814 317.169 44.958C317.709 45.066 318.501 45.246 319.545 45.498C320.697 45.786 321.561 46.02 322.137 46.2C322.713 46.344 323.541 46.614 324.621 47.01C325.701 47.37 326.529 47.73 327.105 48.09C327.717 48.45 328.419 48.936 329.211 49.548C330.003 50.124 330.597 50.772 330.993 51.492C331.425 52.176 331.785 53.022 332.073 54.03C332.397 55.002 332.559 56.064 332.559 57.216C332.559 59.844 331.893 62.094 330.561 63.966C329.229 65.838 327.501 67.206 325.377 68.07C323.289 68.934 320.895 69.366 318.195 69.366Z" fill="black"/>
</svg>
